<svg width="43" height="47" viewBox="0 0 43 47" fill="none" xmlns="http://www.w3.org/2000/svg">
<mask id="mask0_76_238" style="mask-type:luminance" maskUnits="userSpaceOnUse" x="0" y="0" width="43" height="47">
<path d="M42.4898 19.5562H22.1706V28.3404H33.8665C32.7762 33.9209 28.2168 37.1246 22.1706 37.1246C15.034 37.1246 9.28516 31.1306 9.28516 23.6899C9.28516 16.2492 15.034 10.2553 22.1706 10.2553C25.2432 10.2553 28.0185 11.3921 30.1991 13.2522L36.5427 6.63824C32.6771 3.12456 27.7212 0.954346 22.1706 0.954346C10.0781 0.954346 0.364502 11.082 0.364502 23.6899C0.364502 36.2978 10.0781 46.4255 22.1706 46.4255C33.0736 46.4255 42.9854 38.158 42.9854 23.6899C42.9854 22.3464 42.7872 20.8996 42.4898 19.5562Z" fill="white"/>
</mask>
<g mask="url(#mask0_76_238)">
<path d="M-1.61792 37.1247V10.2554L15.2322 23.69L-1.61792 37.1247Z" fill="#FBBC05"/>
</g>
<mask id="mask1_76_238" style="mask-type:luminance" maskUnits="userSpaceOnUse" x="0" y="0" width="43" height="47">
<path d="M42.4898 19.5562H22.1706V28.3404H33.8665C32.7762 33.9209 28.2168 37.1246 22.1706 37.1246C15.034 37.1246 9.28516 31.1306 9.28516 23.6899C9.28516 16.2492 15.034 10.2553 22.1706 10.2553C25.2432 10.2553 28.0185 11.3921 30.1991 13.2522L36.5427 6.63824C32.6771 3.12456 27.7212 0.954346 22.1706 0.954346C10.0781 0.954346 0.364502 11.082 0.364502 23.6899C0.364502 36.2978 10.0781 46.4255 22.1706 46.4255C33.0736 46.4255 42.9854 38.158 42.9854 23.6899C42.9854 22.3464 42.7872 20.8996 42.4898 19.5562Z" fill="white"/>
</mask>
<g mask="url(#mask1_76_238)">
<path d="M-1.61792 10.2552L15.2322 23.6899L22.1705 17.386L45.9589 13.3555V-1.11255H-1.61792V10.2552Z" fill="#EA4335"/>
</g>
<mask id="mask2_76_238" style="mask-type:luminance" maskUnits="userSpaceOnUse" x="0" y="0" width="43" height="47">
<path d="M42.4898 19.5562H22.1706V28.3404H33.8665C32.7762 33.9209 28.2168 37.1246 22.1706 37.1246C15.034 37.1246 9.28516 31.1306 9.28516 23.6899C9.28516 16.2492 15.034 10.2553 22.1706 10.2553C25.2432 10.2553 28.0185 11.3921 30.1991 13.2522L36.5427 6.63824C32.6771 3.12456 27.7212 0.954346 22.1706 0.954346C10.0781 0.954346 0.364502 11.082 0.364502 23.6899C0.364502 36.2978 10.0781 46.4255 22.1706 46.4255C33.0736 46.4255 42.9854 38.158 42.9854 23.6899C42.9854 22.3464 42.7872 20.8996 42.4898 19.5562Z" fill="white"/>
</mask>
<g mask="url(#mask2_76_238)">
<path d="M-1.61792 37.1245L28.1176 13.3555L35.948 14.389L45.9589 -1.11255V48.4923H-1.61792V37.1245Z" fill="#34A853"/>
</g>
<mask id="mask3_76_238" style="mask-type:luminance" maskUnits="userSpaceOnUse" x="0" y="0" width="43" height="47">
<path d="M42.4898 19.5562H22.1706V28.3404H33.8665C32.7762 33.9209 28.2168 37.1246 22.1706 37.1246C15.034 37.1246 9.28516 31.1306 9.28516 23.6899C9.28516 16.2492 15.034 10.2553 22.1706 10.2553C25.2432 10.2553 28.0185 11.3921 30.1991 13.2522L36.5427 6.63824C32.6771 3.12456 27.7212 0.954346 22.1706 0.954346C10.0781 0.954346 0.364502 11.082 0.364502 23.6899C0.364502 36.2978 10.0781 46.4255 22.1706 46.4255C33.0736 46.4255 42.9854 38.158 42.9854 23.6899C42.9854 22.3464 42.7872 20.8996 42.4898 19.5562Z" fill="white"/>
</mask>
<g mask="url(#mask3_76_238)">
<path d="M45.959 48.4925L15.2323 23.69L11.2676 20.5897L45.959 10.2554V48.4925Z" fill="#4285F4"/>
</g>
</svg>
