<svg width="639" height="617" viewBox="0 0 639 617" fill="none" xmlns="http://www.w3.org/2000/svg">
<g clip-path="url(#clip0_59_255)">
<path d="M143.318 103.04L138.446 127.422L162.734 133.95L159.716 107.919L143.318 103.04Z" fill="#A0616A"/>
<path d="M433.621 276.698H183.136C154.73 276.698 131.703 298.651 131.703 325.731V557.291C131.703 584.371 154.73 606.323 183.135 606.323H433.621C462.027 606.323 485.054 584.37 485.054 557.29V325.731C485.054 298.651 462.027 276.698 433.621 276.698Z" fill="white"/>
<path d="M433.621 607.484H183.136C154.104 607.484 130.485 584.967 130.485 557.29V325.731C130.485 298.054 154.104 275.537 183.136 275.537H433.621C462.653 275.537 486.272 298.054 486.272 325.731V557.29C486.272 584.967 462.653 607.484 433.621 607.484ZM183.136 277.859C155.447 277.859 132.921 299.334 132.921 325.731V557.29C132.921 583.687 155.447 605.162 183.136 605.162H433.621C461.31 605.162 483.836 583.687 483.836 557.29V325.731C483.836 299.334 461.31 277.859 433.621 277.859L183.136 277.859Z" fill="#3F3D56"/>
<path d="M451.766 377.087H351.084C346.813 377.087 343.339 373.775 343.339 369.704C343.339 365.633 346.813 362.321 351.084 362.321H451.765C456.036 362.321 459.51 365.633 459.51 369.704C459.51 373.775 456.036 377.087 451.766 377.087Z" fill="#C62368"/>
<path d="M357.313 435.151H259.445C256.978 435.151 254.97 433.237 254.97 430.884C254.97 428.532 256.978 426.619 259.445 426.619H357.313C359.78 426.619 361.787 428.532 361.787 430.884C361.787 433.237 359.78 435.151 357.313 435.151Z" fill="#C62368"/>
<path d="M218.987 292.556H163.112C162.903 292.556 162.734 292.717 162.734 292.916V299.118C162.734 299.316 162.903 299.478 163.112 299.478H218.987C219.195 299.478 219.365 299.316 219.365 299.118V292.916C219.365 292.717 219.195 292.556 218.987 292.556Z" fill="#C62368"/>
<path d="M407.191 299.478C410.399 299.478 412.999 296.999 412.999 293.941C412.999 290.882 410.399 288.403 407.191 288.403C403.983 288.403 401.383 290.882 401.383 293.941C401.383 296.999 403.983 299.478 407.191 299.478Z" fill="#3F3D56"/>
<path d="M423.164 299.478C426.372 299.478 428.972 296.999 428.972 293.941C428.972 290.882 426.372 288.403 423.164 288.403C419.956 288.403 417.355 290.882 417.355 293.941C417.355 296.999 419.956 299.478 423.164 299.478Z" fill="#3F3D56"/>
<path d="M439.136 299.478C442.344 299.478 444.945 296.999 444.945 293.941C444.945 290.882 442.344 288.403 439.136 288.403C435.929 288.403 433.328 290.882 433.328 293.941C433.328 296.999 435.929 299.478 439.136 299.478Z" fill="#3F3D56"/>
<path d="M182.526 457.986C182.526 458.752 183.171 459.368 183.975 459.368H432.782C433.585 459.368 434.231 458.752 434.231 457.986C434.231 457.22 433.585 456.604 432.782 456.604H183.975C183.171 456.604 182.526 457.22 182.526 457.986Z" fill="#3F3D56"/>
<path d="M258.407 117.174C263.704 113.001 270.256 112.225 273.041 115.439C275.826 118.653 273.789 124.64 268.489 128.813C266.397 130.508 263.908 131.7 261.233 132.29L238.556 149.699L230.213 139.38L253.455 123.313C254.568 120.919 256.266 118.814 258.407 117.174Z" fill="#A0616A"/>
<path d="M127.335 156.454C127.324 155.684 127.332 148.968 132.547 144.723C138.537 139.847 146.991 141.821 149.956 142.513C156.805 144.112 157.367 146.913 163.799 149.791C175.832 155.175 160.754 152.419 167.915 150.693C170.393 150.095 206.05 147.738 214.926 142.53C232.188 132.401 243.95 126.259 243.95 126.259L251.639 140.919C251.639 140.919 240.52 155.658 224.872 166.576C208.821 177.776 200.796 183.376 188.599 185.539C187.549 185.726 161.717 189.931 140.912 175.112C136.166 171.732 127.471 165.539 127.335 156.454Z" fill="#E6E6E6"/>
<path d="M151.187 119.169C165.98 119.169 177.972 107.736 177.972 93.6331C177.972 79.5303 165.98 68.0977 151.187 68.0977C136.394 68.0977 124.402 79.5303 124.402 93.6331C124.402 107.736 136.394 119.169 151.187 119.169Z" fill="#A0616A"/>
<path d="M360.957 265.19L333.372 238.271L319.133 252.432L339.685 278.242L360.07 280.465L360.957 265.19Z" fill="#A0616A"/>
<path d="M203.446 214.711C205.06 214.839 210.187 215.818 215.088 213.248C218.432 211.493 220.148 208.885 220.727 208.055C227.914 197.764 255.501 181.717 280.259 180.729C285.866 180.505 289.557 181.125 292.911 182.792C297.667 185.155 299.566 188.541 305.602 196.473C308.903 200.811 312.557 204.899 315.898 209.209C335.46 234.447 342.876 236.428 342.118 244.52C341.277 253.497 331.121 262.014 324.372 261.03C321.607 260.628 320.537 258.795 316.844 255.086C306.015 244.209 301.535 246.219 293.826 237.888C284.825 228.161 286.003 220.096 281.307 219.785C276.952 219.496 275.101 226.376 265.804 235.515C261.55 239.697 258.52 241.616 249.291 247.72C213.35 271.491 212.776 273.161 205.523 275.057C202.349 275.887 179.825 281.774 171.802 272.405C159.246 257.745 188.908 213.559 203.446 214.711Z" fill="#2F2E41"/>
<path d="M352.524 271.274C354.553 270.405 356.925 269.39 357.688 267.054C358.205 265.474 357.907 263.526 356.84 262.18C355.608 260.626 353.785 260.421 353.859 260.147C353.971 259.728 358.282 259.892 363.014 261.486C363.907 261.787 367.953 263.197 373.099 267.027C377.222 270.095 376.667 270.711 379.252 272.48C387.189 277.911 394.632 273.631 398.927 278.724C400.584 280.69 401.291 283.481 400.593 285.738C399.193 290.27 392.381 291.829 388.658 292.635C379.693 294.574 372.907 292.991 365.821 291.852C341.722 287.981 328.183 291.507 326.37 286.185C326.027 285.177 326.585 285.263 328.443 277.871C330.277 270.575 330.216 268.571 331.778 267.987C334.129 267.107 335.708 271.108 341.63 272.477C346.879 273.69 351.209 271.836 352.524 271.274Z" fill="#2F2E41"/>
<path d="M311.916 353.253L304.946 316.212L284.823 320.306L286.626 352.665L302.184 365.417L311.916 353.253Z" fill="#A0616A"/>
<path d="M211.316 227.162C212.576 228.131 216.242 231.687 221.811 232.183C225.612 232.522 228.567 231.282 229.535 230.906C241.544 226.238 273.823 227.728 294.891 240.165C299.662 242.981 302.351 245.469 304.145 248.644C306.688 253.146 306.265 256.965 306.588 266.759C306.764 272.116 307.379 277.454 307.605 282.81C308.926 314.165 313.896 319.774 308.503 326.064C302.519 333.041 289.099 334.652 284.093 330.225C282.043 328.412 282.237 326.323 281.366 321.276C278.812 306.479 273.922 305.744 272.449 294.723C270.73 281.856 276.456 275.814 272.754 273.042C269.32 270.472 263.736 275.174 250.66 277.759C244.677 278.942 241.04 278.908 229.808 279.018C186.066 279.446 184.608 280.521 177.489 278.207C174.375 277.195 152.27 270.008 151.149 257.961C149.395 239.108 199.965 218.426 211.316 227.162Z" fill="#2F2E41"/>
<path d="M301.354 353.772C303.545 354.139 306.106 354.569 308.113 353.045C309.471 352.014 310.372 350.243 310.282 348.558C310.178 346.613 308.79 345.467 309.013 345.28C309.352 344.993 312.823 347.436 315.799 351.289C316.361 352.016 318.878 355.348 320.88 361.272C322.485 366.019 321.663 366.231 322.76 369.079C326.128 377.822 334.809 378.265 335.362 384.778C335.575 387.292 334.516 389.98 332.61 391.474C328.781 394.474 322.227 392.118 318.672 390.791C310.111 387.596 305.428 382.654 300.235 377.918C282.576 361.814 269.295 357.483 270.931 352.109C271.24 351.092 271.651 351.461 277.542 346.339C283.357 341.284 284.488 339.594 286.124 339.946C288.588 340.477 287.538 344.632 291.632 348.936C295.26 352.749 299.935 353.534 301.354 353.772Z" fill="#2F2E41"/>
<path d="M154.839 98.5149C155.881 94.9588 154.572 93.6629 155.907 92.0667C155.907 92.0666 156.444 91.4244 161.246 89.691C159.829 81.8532 160.89 80.5279 160.89 80.5278C162.113 79.0004 164.563 78.6311 166.23 78.8309C169.757 79.2535 170.381 82.2929 172.638 82.2247C175.755 82.1305 179.494 76.1815 178.334 71.0252C177.387 66.8192 173.305 63.6957 172.282 64.2377C171.267 64.7751 167.615 62.4054 166.23 62.8802C165.284 63.2044 160.832 62.773 159.822 63.2195C158.72 63.7072 155.563 66.7432 155.261 66.3607C153.163 63.7024 153.208 62.7743 151.991 62.2014C149.834 61.1862 147.49 63.0626 143.447 64.9164C135.129 68.7307 132.694 66.4554 128.852 69.6677C126.911 71.2904 125.87 74.3916 123.868 80.5278C121.068 89.1092 119.668 93.3999 121.02 97.4967C122.399 101.675 124.43 100.765 127.428 106.66C130.765 113.222 129.614 117.036 132.767 118.538C135.204 119.7 139.121 118.96 140.599 116.841C143.131 113.213 136.587 108.305 138.819 102.587C140.189 99.0776 144.415 96.4163 147.007 97.1574C149.937 97.9953 150.153 103.004 151.991 102.927C153.564 102.86 154.657 99.1346 154.839 98.5149Z" fill="#2F2E41"/>
<path d="M134.548 122.95C140.029 117.091 162.355 123.155 164.45 132.453C165.312 136.277 162.13 137.892 163.026 142.295C164.337 148.735 171.758 148.296 177.266 154.852C185.086 164.159 177.03 173.257 185.809 188.789C187.686 192.109 189.267 194.906 192.573 197.613C200.16 203.826 207.221 201.695 211.084 207.455C213.973 211.763 212.786 217.072 212.508 218.315C211.368 223.415 208.278 224.658 206.101 228.836C202.478 235.788 206.58 240.892 206.813 249.199C207.104 259.592 201.311 273.998 189.725 278.725C176.709 284.035 161.011 275.24 153.415 266.507C148.882 261.296 147.566 256.489 145.583 250.556C136.72 224.04 131.713 226.438 124.936 205.419C117.188 181.39 115.665 153.239 124.936 144.331C126.165 143.15 129.547 140.421 131.7 135.507C134.597 128.895 132.094 125.573 134.548 122.95Z" fill="#E6E6E6"/>
<path d="M215.537 259.34C219.787 264.487 220.446 270.75 217.009 273.328C213.572 275.905 207.343 273.822 203.092 268.672C201.365 266.637 200.174 264.237 199.618 261.674L181.902 239.647L191.056 232.99L209.217 254.474C211.701 255.591 213.868 257.26 215.537 259.34Z" fill="#A0616A"/>
<path d="M150.652 145.279C151.44 145.111 158.338 143.748 163.761 147.749C169.99 152.345 169.689 160.638 169.583 163.546C169.338 170.264 166.577 171.36 164.934 177.95C161.86 190.28 167.714 201.738 170.948 208.068C172.067 210.259 175.664 216.964 182.823 224.185C196.746 238.229 209.169 245.619 209.169 245.619L195.823 256.928C195.823 256.928 174.564 250.751 160.16 238.375C145.384 225.68 122.661 180.763 117.951 169.821C117.545 168.879 123.291 184.198 134.263 161.757C136.765 156.638 141.351 147.259 150.652 145.279Z" fill="#E6E6E6"/>
<path d="M333.64 489.616C325.157 490.855 318.952 496.033 319.78 501.179C320.609 506.326 328.156 509.492 336.642 508.251C340.038 507.799 343.272 506.579 346.073 504.692L381.946 499.007L379.552 485.489L343.76 490.317C340.494 489.316 337.024 489.076 333.64 489.616Z" fill="#FFB6B6"/>
<path d="M488.223 447.478L474.313 475.617L404.387 498.058L346.363 501.01L344.91 487.723L407.795 475.188L472.323 446.117L488.223 447.478Z" fill="#E6E6E6"/>
<path d="M359.254 554.323L346.765 584.436L330.604 573.932L340.154 542.417L359.254 554.323Z" fill="#FFB6B6"/>
<path d="M307.098 543.118L274.041 573.231L287.264 586.538L321.055 561.326L307.098 543.118Z" fill="#FFB6B6"/>
<path d="M494.418 445.073L494.051 442.622L485.603 426.865L457.688 433.868L462.831 455.578L494.418 445.073Z" fill="#FFB6B6"/>
<path d="M482.664 550.121L483.523 560.64C483.523 560.64 487.072 604.746 458.423 608.248C429.774 611.749 417.286 615.251 400.39 587.938L373.945 543.118L358.498 560.64L337.95 545.219C337.95 545.219 352.642 490.594 364.395 488.493C365.865 488.23 367.334 488.099 368.78 488.07C378.51 487.877 387.683 492.414 393.505 499.85L426.836 542.417L438.956 537.165L482.664 550.121Z" fill="#2F2E41"/>
<path d="M323.993 583.036L330.604 571.13L349.704 583.736C349.704 583.736 354.111 599.143 347.5 601.244C340.889 603.345 322.524 600.544 322.524 600.544C322.524 600.544 288.733 607.547 287.998 601.244C287.264 594.941 303.425 593.541 303.425 593.541L323.993 583.036Z" fill="#2F2E41"/>
<path d="M395.983 574.632L344.929 543.964L318.851 566.228L301.221 546.619C301.221 546.619 333.543 501.098 343.092 498.997C352.642 496.896 368.068 495.496 368.068 495.496L415.082 536.815L395.983 574.632Z" fill="#2F2E41"/>
<path d="M273.306 570.43L290.202 587.938L287.974 589.755C287.974 589.755 283.591 607.955 273.306 601.798C263.022 595.642 262.288 594.241 262.288 594.241C262.288 594.241 232.904 600.544 229.966 589.339C227.027 578.134 235.108 580.235 235.108 580.235L242.445 584.437L273.306 570.43Z" fill="#2F2E41"/>
<path d="M466.504 441.571C479.486 441.571 490.011 431.538 490.011 419.161C490.011 406.784 479.486 396.751 466.504 396.751C453.521 396.751 442.997 406.784 442.997 419.161C442.997 431.538 453.521 441.571 466.504 441.571Z" fill="#FFB6B6"/>
<path d="M460.994 451.026L494.785 441.221C494.785 441.221 508.008 470.635 505.804 483.941C503.6 497.247 483.523 560.64 483.523 560.64L438.956 537.165C438.956 537.165 438.222 523.159 436.018 516.856C433.814 510.553 426.836 491.294 442.262 475.187C457.688 459.079 460.994 451.026 460.994 451.026Z" fill="#E6E6E6"/>
<path d="M386.622 598.08C381.123 604.361 380.065 612.157 384.258 615.493C388.452 618.829 396.308 616.441 401.808 610.157C404.041 607.676 405.619 604.72 406.408 601.539L429.357 574.645L418.178 566.021L394.696 592.221C391.553 593.531 388.784 595.54 386.622 598.08Z" fill="#FFB6B6"/>
<path d="M486.914 465.155L494.901 495.315L455.809 554.971L415.903 593.207L402.969 582.977L443.215 535.237L473.721 473.725L486.914 465.155Z" fill="#E6E6E6"/>
<path d="M444.833 415.309C450.862 415.296 451.204 415.334 452.179 415.309C459.656 415.121 461.612 412.317 465.402 412.508C472.166 412.849 463.238 445.182 459.525 460.13C455.883 474.79 468.19 487.926 469.075 488.843C481.566 501.795 503.508 504.163 507.273 498.647C510.321 494.183 499.52 487.395 502.131 477.638C504.683 468.1 516.467 469.115 519.761 460.13C523.211 450.72 511.618 445.974 504.335 423.013C500.152 409.826 500.892 407.369 496.989 399.202C486.556 377.371 435.419 386.666 441.16 406.905C442.271 410.821 439.315 415.322 444.833 415.309Z" fill="#2F2E41"/>
<path d="M519.896 149.271H272.843C265.856 149.271 260.172 143.852 260.172 137.191V12.0794C260.172 5.41919 265.856 0 272.843 0H519.896C526.883 0 532.567 5.41918 532.567 12.0794V137.191C532.567 143.852 526.883 149.271 519.896 149.271Z" fill="white"/>
<path d="M519.896 149.271H272.843C265.856 149.271 260.172 143.852 260.172 137.191V12.0794C260.172 5.41919 265.856 0 272.843 0H519.896C526.883 0 532.567 5.41918 532.567 12.0794V137.191C532.567 143.852 526.883 149.271 519.896 149.271ZM272.843 2.01717C267.023 2.01717 262.288 6.53119 262.288 12.0794V137.191C262.288 142.74 267.023 147.254 272.843 147.254H519.896C525.716 147.254 530.451 142.74 530.451 137.191V12.0794C530.451 6.53119 525.716 2.01717 519.896 2.01717H272.843Z" fill="#3F3D56"/>
<path d="M500.829 15.1289C502.581 15.1289 504.002 13.7742 504.002 12.1031C504.002 10.4321 502.581 9.07739 500.829 9.07739C499.076 9.07739 497.655 10.4321 497.655 12.1031C497.655 13.7742 499.076 15.1289 500.829 15.1289Z" fill="#3F3D56"/>
<path d="M509.292 15.1289C511.045 15.1289 512.466 13.7742 512.466 12.1031C512.466 10.4321 511.045 9.07739 509.292 9.07739C507.539 9.07739 506.118 10.4321 506.118 12.1031C506.118 13.7742 507.539 15.1289 509.292 15.1289Z" fill="#3F3D56"/>
<path d="M517.756 15.1289C519.508 15.1289 520.929 13.7742 520.929 12.1031C520.929 10.4321 519.508 9.07739 517.756 9.07739C516.003 9.07739 514.582 10.4321 514.582 12.1031C514.582 13.7742 516.003 15.1289 517.756 15.1289Z" fill="#3F3D56"/>
<path d="M278.157 61.0195C277.282 61.0195 276.571 61.6982 276.571 62.5324C276.571 62.9392 276.735 63.3154 277.034 63.5932C277.336 63.8877 277.731 64.0453 278.157 64.0453H515.64C516.515 64.0453 517.227 63.3667 517.227 62.5324C517.227 62.1256 517.062 61.7494 516.763 61.4716C516.461 61.1771 516.066 61.0195 515.64 61.0195H278.157Z" fill="#E6E6E6"/>
<path d="M486.017 60.5151V64.5495H278.157C277.576 64.5495 277.047 64.3276 276.666 63.9544C276.274 63.5913 276.042 63.087 276.042 62.5323C276.042 61.4228 276.994 60.5151 278.157 60.5151H486.017Z" fill="#FF0066"/>
<path d="M512.995 52.9508H491.836C489.503 52.9508 487.604 51.1414 487.604 48.9164C487.604 46.6914 489.503 44.8821 491.836 44.8821H512.995C515.328 44.8821 517.227 46.6914 517.227 48.9164C517.227 51.1414 515.328 52.9508 512.995 52.9508Z" fill="#E6E6E6"/>
<path d="M374.404 31.7706H279.744C277.411 31.7706 275.512 29.9613 275.512 27.7363C275.512 25.5113 277.411 23.7019 279.744 23.7019H374.404C376.738 23.7019 378.636 25.5113 378.636 27.7363C378.636 29.9613 376.738 31.7706 374.404 31.7706Z" fill="#E6E6E6"/>
<path d="M278.157 106.406C277.282 106.406 276.571 107.085 276.571 107.919C276.571 108.326 276.735 108.702 277.034 108.98C277.336 109.274 277.731 109.432 278.157 109.432H515.64C516.515 109.432 517.227 108.753 517.227 107.919C517.227 107.512 517.062 107.136 516.763 106.858C516.461 106.564 516.066 106.406 515.64 106.406H278.157Z" fill="#E6E6E6"/>
<path d="M404.556 105.902V109.936H278.157C277.576 109.936 277.047 109.714 276.666 109.341C276.274 108.978 276.042 108.473 276.042 107.919C276.042 106.809 276.994 105.902 278.157 105.902H404.556Z" fill="#FF0066"/>
<path d="M512.995 98.3373H491.836C489.503 98.3373 487.604 96.5279 487.604 94.3029C487.604 92.0779 489.503 90.2686 491.836 90.2686H512.995C515.328 90.2686 517.227 92.0779 517.227 94.3029C517.227 96.5279 515.328 98.3373 512.995 98.3373Z" fill="#E6E6E6"/>
</g>
<defs>
<clipPath id="clip0_59_255">
<rect width="639" height="617" fill="white"/>
</clipPath>
</defs>
</svg>
