<svg width="756" height="559" viewBox="0 0 756 559" fill="none" xmlns="http://www.w3.org/2000/svg">
    <g clip-path="url(#clip0_76_268)">
        <path
            d="M453.184 98.5452C467.765 98.5452 479.585 86.8678 479.585 72.463C479.585 58.0582 467.765 46.3809 453.184 46.3809C438.603 46.3809 426.782 58.0582 426.782 72.463C426.782 86.8678 438.603 98.5452 453.184 98.5452Z"
            fill="#F2F2F2" />
        <path
            d="M657.988 485.634C697.231 456.106 715.974 406.486 704.24 359.152C703.948 357.975 703.641 356.802 703.317 355.631C695.538 327.534 676.292 300.83 648.241 291.853C624.689 284.314 598.98 290.111 574.409 287.113C526.174 281.229 488.779 242.673 462.467 202.306C436.154 161.938 415.932 116.751 380.969 83.4014C323.338 28.4298 229.326 16.5944 157.872 52.3768C86.417 88.1593 40.9011 167.546 42.8422 246.664C44.7834 325.783 92.3275 401.426 161.373 441.559C186.738 456.302 216.075 466.747 245.271 463.092C270.603 459.921 293.621 446.474 318.835 442.481C358.477 436.204 397.866 453.911 432.153 474.545C466.44 495.178 499.559 519.635 538.522 529.201C576.354 538.489 623.225 511.792 657.988 485.634Z"
            fill="#F2F2F2" />
        <path
            d="M601.606 54.0384C600.745 53.4718 599.875 52.9346 599.015 52.3875C574.148 36.6759 547.494 23.912 519.605 14.3594L513.139 102.489H472.143V1.49455C469.563 0.967063 466.962 0.46888 464.362 0V102.489H415.644C388.824 102.489 363.103 91.9641 344.139 73.2291C325.174 54.4941 314.52 29.084 314.52 2.58872C311.91 3.14551 309.319 3.74129 306.729 4.37624V102.489H267.048L260.888 18.4524C232.228 29.3111 205.019 43.5909 179.867 60.9739C179.432 61.267 178.997 61.5698 178.571 61.8628C176.386 63.3769 174.231 64.9203 172.085 66.4833V402.699H289.029L286.963 374.42L275.592 219.152H504.586L493.214 374.42L491.148 402.699H606.797V57.4378C605.076 56.2851 603.346 55.152 601.606 54.0384ZM306.729 193.511H273.713L267.612 110.187H306.729V193.511ZM464.362 193.511H408.91V191.86C408.91 191.066 408.752 190.28 408.444 189.547C408.136 188.814 407.685 188.148 407.117 187.587C406.548 187.027 405.874 186.582 405.131 186.28C404.389 185.977 403.593 185.822 402.79 185.823H378.683C377.88 185.823 377.086 185.978 376.344 186.282C375.602 186.585 374.929 187.03 374.361 187.59C373.794 188.151 373.344 188.817 373.037 189.549C372.73 190.282 372.572 191.067 372.572 191.86V193.511H314.52V110.187H464.362V193.511ZM472.143 193.511V110.187H512.575L506.474 193.511H472.143Z"
            fill="#3F3D56" />
        <path
            d="M0 424.229C8.58987 434.285 17.8808 443.734 27.8048 452.509L750.195 453.486C760.119 444.711 769.41 435.261 778 425.206L0 424.229Z"
            fill="#3F3D56" />
        <path
            d="M489.876 333.677V417.396C489.877 418.463 490.307 419.486 491.07 420.24C491.834 420.994 492.869 421.419 493.949 421.42H619.53C620.61 421.419 621.646 420.994 622.409 420.24C623.173 419.486 623.602 418.463 623.603 417.396V333.677C623.6 332.611 623.17 331.59 622.407 330.837C621.644 330.083 620.609 329.66 619.53 329.658H493.949C492.87 329.66 491.836 330.083 491.072 330.837C490.309 331.59 489.879 332.611 489.876 333.677Z"
            fill="#3F3D56" />
        <path
            d="M492.822 334.719V416.363C492.823 416.933 493.053 417.48 493.461 417.883C493.869 418.286 494.422 418.513 494.999 418.514H618.485C619.062 418.513 619.615 418.286 620.023 417.883C620.431 417.48 620.66 416.933 620.661 416.363V334.719C620.661 334.148 620.432 333.601 620.024 333.197C619.616 332.793 619.062 332.565 618.485 332.564H494.999C494.421 332.565 493.868 332.793 493.46 333.197C493.052 333.601 492.822 334.148 492.822 334.719Z"
            fill="#FF0066" />
        <path
            d="M487.25 433.723C487.48 434.008 487.772 434.238 488.105 434.395C488.438 434.553 488.803 434.633 489.172 434.632H623.639C624.007 434.631 624.37 434.55 624.702 434.393C625.034 434.237 625.326 434.009 625.558 433.727C625.789 433.445 625.954 433.115 626.041 432.762C626.128 432.409 626.133 432.041 626.058 431.686L623.97 421.891C623.884 421.491 623.698 421.12 623.429 420.809C623.16 420.499 622.816 420.261 622.43 420.115C622.15 420.007 621.852 419.951 621.552 419.951H491.251C490.95 419.951 490.652 420.007 490.373 420.115C489.986 420.261 489.643 420.499 489.374 420.809C489.105 421.12 488.919 421.491 488.832 421.891L486.745 431.686C486.67 432.041 486.677 432.408 486.765 432.761C486.852 433.113 487.018 433.442 487.25 433.723Z"
            fill="#2F2E41" />
        <path
            d="M616.938 424.17H620.114C620.381 424.17 620.597 423.957 620.597 423.694V422.192C620.597 421.929 620.381 421.716 620.114 421.716H616.938C616.671 421.716 616.455 421.929 616.455 422.192V423.694C616.455 423.957 616.671 424.17 616.938 424.17Z"
            fill="#3F3D56" />
        <path
            d="M608.655 424.17H611.831C612.098 424.17 612.314 423.957 612.314 423.694V422.192C612.314 421.929 612.098 421.716 611.831 421.716H608.655C608.388 421.716 608.172 421.929 608.172 422.192V423.694C608.172 423.957 608.388 424.17 608.655 424.17Z"
            fill="#3F3D56" />
        <path
            d="M600.372 424.17H603.548C603.814 424.17 604.031 423.957 604.031 423.694V422.192C604.031 421.929 603.814 421.716 603.548 421.716H600.372C600.105 421.716 599.889 421.929 599.889 422.192V423.694C599.889 423.957 600.105 424.17 600.372 424.17Z"
            fill="#3F3D56" />
        <path
            d="M592.089 424.17H595.265C595.531 424.17 595.748 423.957 595.748 423.694V422.192C595.748 421.929 595.531 421.716 595.265 421.716H592.089C591.822 421.716 591.606 421.929 591.606 422.192V423.694C591.606 423.957 591.822 424.17 592.089 424.17Z"
            fill="#3F3D56" />
        <path
            d="M583.806 424.17H586.982C587.248 424.17 587.464 423.957 587.464 423.694V422.192C587.464 421.929 587.248 421.716 586.982 421.716H583.806C583.539 421.716 583.323 421.929 583.323 422.192V423.694C583.323 423.957 583.539 424.17 583.806 424.17Z"
            fill="#3F3D56" />
        <path
            d="M575.523 424.17H578.699C578.965 424.17 579.181 423.957 579.181 423.694V422.192C579.181 421.929 578.965 421.716 578.699 421.716H575.523C575.256 421.716 575.04 421.929 575.04 422.192V423.694C575.04 423.957 575.256 424.17 575.523 424.17Z"
            fill="#3F3D56" />
        <path
            d="M567.239 424.17H570.416C570.682 424.17 570.898 423.957 570.898 423.694V422.192C570.898 421.929 570.682 421.716 570.416 421.716H567.239C566.973 421.716 566.757 421.929 566.757 422.192V423.694C566.757 423.957 566.973 424.17 567.239 424.17Z"
            fill="#3F3D56" />
        <path
            d="M558.956 424.17H562.132C562.399 424.17 562.615 423.957 562.615 423.694V422.192C562.615 421.929 562.399 421.716 562.132 421.716H558.956C558.69 421.716 558.474 421.929 558.474 422.192V423.694C558.474 423.957 558.69 424.17 558.956 424.17Z"
            fill="#3F3D56" />
        <path
            d="M550.673 424.17H553.849C554.116 424.17 554.332 423.957 554.332 423.694V422.192C554.332 421.929 554.116 421.716 553.849 421.716H550.673C550.407 421.716 550.191 421.929 550.191 422.192V423.694C550.191 423.957 550.407 424.17 550.673 424.17Z"
            fill="#3F3D56" />
        <path
            d="M542.39 424.17H545.566C545.833 424.17 546.049 423.957 546.049 423.694V422.192C546.049 421.929 545.833 421.716 545.566 421.716H542.39C542.124 421.716 541.907 421.929 541.907 422.192V423.694C541.907 423.957 542.124 424.17 542.39 424.17Z"
            fill="#3F3D56" />
        <path
            d="M534.107 424.17H537.283C537.55 424.17 537.766 423.957 537.766 423.694V422.192C537.766 421.929 537.55 421.716 537.283 421.716H534.107C533.84 421.716 533.624 421.929 533.624 422.192V423.694C533.624 423.957 533.84 424.17 534.107 424.17Z"
            fill="#3F3D56" />
        <path
            d="M525.824 424.17H529C529.267 424.17 529.483 423.957 529.483 423.694V422.192C529.483 421.929 529.267 421.716 529 421.716H525.824C525.557 421.716 525.341 421.929 525.341 422.192V423.694C525.341 423.957 525.557 424.17 525.824 424.17Z"
            fill="#3F3D56" />
        <path
            d="M517.541 424.17H520.717C520.984 424.17 521.2 423.957 521.2 423.694V422.192C521.2 421.929 520.984 421.716 520.717 421.716H517.541C517.274 421.716 517.058 421.929 517.058 422.192V423.694C517.058 423.957 517.274 424.17 517.541 424.17Z"
            fill="#3F3D56" />
        <path
            d="M509.258 424.17H512.434C512.701 424.17 512.917 423.957 512.917 423.694V422.192C512.917 421.929 512.701 421.716 512.434 421.716H509.258C508.991 421.716 508.775 421.929 508.775 422.192V423.694C508.775 423.957 508.991 424.17 509.258 424.17Z"
            fill="#3F3D56" />
        <path
            d="M500.975 424.17H504.151C504.417 424.17 504.634 423.957 504.634 423.694V422.192C504.634 421.929 504.417 421.716 504.151 421.716H500.975C500.708 421.716 500.492 421.929 500.492 422.192V423.694C500.492 423.957 500.708 424.17 500.975 424.17Z"
            fill="#3F3D56" />
        <path
            d="M492.692 424.17H495.868C496.134 424.17 496.351 423.957 496.351 423.694V422.192C496.351 421.929 496.134 421.716 495.868 421.716H492.692C492.425 421.716 492.209 421.929 492.209 422.192V423.694C492.209 423.957 492.425 424.17 492.692 424.17Z"
            fill="#3F3D56" />
        <path
            d="M617.036 428.262H620.212C620.478 428.262 620.695 428.048 620.695 427.785V426.284C620.695 426.02 620.478 425.807 620.212 425.807H617.036C616.769 425.807 616.553 426.02 616.553 426.284V427.785C616.553 428.048 616.769 428.262 617.036 428.262Z"
            fill="#3F3D56" />
        <path
            d="M608.753 428.262H611.929C612.196 428.262 612.412 428.048 612.412 427.785V426.284C612.412 426.02 612.196 425.807 611.929 425.807H608.753C608.486 425.807 608.27 426.02 608.27 426.284V427.785C608.27 428.048 608.486 428.262 608.753 428.262Z"
            fill="#3F3D56" />
        <path
            d="M600.47 428.262H603.646C603.912 428.262 604.128 428.048 604.128 427.785V426.284C604.128 426.02 603.912 425.807 603.646 425.807H600.47C600.203 425.807 599.987 426.02 599.987 426.284V427.785C599.987 428.048 600.203 428.262 600.47 428.262Z"
            fill="#3F3D56" />
        <path
            d="M592.187 428.262H595.363C595.629 428.262 595.845 428.048 595.845 427.785V426.284C595.845 426.02 595.629 425.807 595.363 425.807H592.187C591.92 425.807 591.704 426.02 591.704 426.284V427.785C591.704 428.048 591.92 428.262 592.187 428.262Z"
            fill="#3F3D56" />
        <path
            d="M583.903 428.262H587.08C587.346 428.262 587.562 428.048 587.562 427.785V426.284C587.562 426.02 587.346 425.807 587.08 425.807H583.903C583.637 425.807 583.421 426.02 583.421 426.284V427.785C583.421 428.048 583.637 428.262 583.903 428.262Z"
            fill="#3F3D56" />
        <path
            d="M575.62 428.262H578.797C579.063 428.262 579.279 428.048 579.279 427.785V426.284C579.279 426.02 579.063 425.807 578.797 425.807H575.62C575.354 425.807 575.138 426.02 575.138 426.284V427.785C575.138 428.048 575.354 428.262 575.62 428.262Z"
            fill="#3F3D56" />
        <path
            d="M567.337 428.262H570.513C570.78 428.262 570.996 428.048 570.996 427.785V426.284C570.996 426.02 570.78 425.807 570.513 425.807H567.337C567.071 425.807 566.855 426.02 566.855 426.284V427.785C566.855 428.048 567.071 428.262 567.337 428.262Z"
            fill="#3F3D56" />
        <path
            d="M559.054 428.262H562.23C562.497 428.262 562.713 428.048 562.713 427.785V426.284C562.713 426.02 562.497 425.807 562.23 425.807H559.054C558.787 425.807 558.571 426.02 558.571 426.284V427.785C558.571 428.048 558.787 428.262 559.054 428.262Z"
            fill="#3F3D56" />
        <path
            d="M550.771 428.262H553.947C554.214 428.262 554.43 428.048 554.43 427.785V426.284C554.43 426.02 554.214 425.807 553.947 425.807H550.771C550.505 425.807 550.288 426.02 550.288 426.284V427.785C550.288 428.048 550.505 428.262 550.771 428.262Z"
            fill="#3F3D56" />
        <path
            d="M542.488 428.262H545.664C545.931 428.262 546.147 428.048 546.147 427.785V426.284C546.147 426.02 545.931 425.807 545.664 425.807H542.488C542.222 425.807 542.005 426.02 542.005 426.284V427.785C542.005 428.048 542.222 428.262 542.488 428.262Z"
            fill="#3F3D56" />
        <path
            d="M534.205 428.262H537.381C537.648 428.262 537.864 428.048 537.864 427.785V426.284C537.864 426.02 537.648 425.807 537.381 425.807H534.205C533.938 425.807 533.722 426.02 533.722 426.284V427.785C533.722 428.048 533.938 428.262 534.205 428.262Z"
            fill="#3F3D56" />
        <path
            d="M525.922 428.262H529.098C529.365 428.262 529.581 428.048 529.581 427.785V426.284C529.581 426.02 529.365 425.807 529.098 425.807H525.922C525.655 425.807 525.439 426.02 525.439 426.284V427.785C525.439 428.048 525.655 428.262 525.922 428.262Z"
            fill="#3F3D56" />
        <path
            d="M517.639 428.262H520.815C521.082 428.262 521.298 428.048 521.298 427.785V426.284C521.298 426.02 521.082 425.807 520.815 425.807H517.639C517.372 425.807 517.156 426.02 517.156 426.284V427.785C517.156 428.048 517.372 428.262 517.639 428.262Z"
            fill="#3F3D56" />
        <path
            d="M509.356 428.262H512.532C512.798 428.262 513.015 428.048 513.015 427.785V426.284C513.015 426.02 512.798 425.807 512.532 425.807H509.356C509.089 425.807 508.873 426.02 508.873 426.284V427.785C508.873 428.048 509.089 428.262 509.356 428.262Z"
            fill="#3F3D56" />
        <path
            d="M501.073 428.262H504.249C504.515 428.262 504.731 428.048 504.731 427.785V426.284C504.731 426.02 504.515 425.807 504.249 425.807H501.073C500.806 425.807 500.59 426.02 500.59 426.284V427.785C500.59 428.048 500.806 428.262 501.073 428.262Z"
            fill="#3F3D56" />
        <path
            d="M492.79 428.262H495.966C496.232 428.262 496.448 428.048 496.448 427.785V426.284C496.448 426.02 496.232 425.807 495.966 425.807H492.79C492.523 425.807 492.307 426.02 492.307 426.284V427.785C492.307 428.048 492.523 428.262 492.79 428.262Z"
            fill="#3F3D56" />
        <path
            d="M548.286 433.172H580.453C580.72 433.172 580.936 432.958 580.936 432.695V431.194C580.936 430.93 580.72 430.717 580.453 430.717H548.286C548.02 430.717 547.803 430.93 547.803 431.194V432.695C547.803 432.958 548.02 433.172 548.286 433.172Z"
            fill="#3F3D56" />
        <path
            d="M514.206 350.426H511.395C510.542 350.426 509.851 351.109 509.851 351.951C509.851 352.793 510.542 353.476 511.395 353.476H514.206C515.059 353.476 515.75 352.793 515.75 351.951C515.75 351.109 515.059 350.426 514.206 350.426Z"
            fill="white" />
        <path
            d="M546.365 350.426H543.553C542.701 350.426 542.01 351.109 542.01 351.951C542.01 352.793 542.701 353.476 543.553 353.476H546.365C547.217 353.476 547.909 352.793 547.909 351.951C547.909 351.109 547.217 350.426 546.365 350.426Z"
            fill="white" />
        <path
            d="M555.477 350.426H552.665C551.812 350.426 551.121 351.109 551.121 351.951C551.121 352.793 551.812 353.476 552.665 353.476H555.477C556.329 353.476 557.02 352.793 557.02 351.951C557.02 351.109 556.329 350.426 555.477 350.426Z"
            fill="white" />
        <path
            d="M537.618 350.172H520.142C519.289 350.172 518.598 350.855 518.598 351.697C518.598 352.539 519.289 353.222 520.142 353.222H537.618C538.47 353.222 539.161 352.539 539.161 351.697C539.161 350.855 538.47 350.172 537.618 350.172Z"
            fill="white" />
        <path
            d="M580.496 350.172H563.02C562.167 350.172 561.476 350.855 561.476 351.697C561.476 352.539 562.167 353.222 563.02 353.222H580.496C581.348 353.222 582.039 352.539 582.039 351.697C582.039 350.855 581.348 350.172 580.496 350.172Z"
            fill="white" />
        <path
            d="M522.782 357.31H519.97C519.118 357.31 518.427 357.992 518.427 358.834C518.427 359.677 519.118 360.359 519.97 360.359H522.782C523.634 360.359 524.326 359.677 524.326 358.834C524.326 357.992 523.634 357.31 522.782 357.31Z"
            fill="white" />
        <path
            d="M554.94 357.31H552.129C551.276 357.31 550.585 357.992 550.585 358.834C550.585 359.677 551.276 360.359 552.129 360.359H554.94C555.793 360.359 556.484 359.677 556.484 358.834C556.484 357.992 555.793 357.31 554.94 357.31Z"
            fill="white" />
        <path
            d="M564.052 357.31H561.24C560.388 357.31 559.697 357.992 559.697 358.834C559.697 359.677 560.388 360.359 561.24 360.359H564.052C564.905 360.359 565.596 359.677 565.596 358.834C565.596 357.992 564.905 357.31 564.052 357.31Z"
            fill="white" />
        <path
            d="M546.193 357.055H528.717C527.865 357.055 527.174 357.738 527.174 358.58C527.174 359.422 527.865 360.105 528.717 360.105H546.193C547.046 360.105 547.737 359.422 547.737 358.58C547.737 357.738 547.046 357.055 546.193 357.055Z"
            fill="white" />
        <path
            d="M589.071 357.055H571.595C570.743 357.055 570.052 357.738 570.052 358.58C570.052 359.422 570.743 360.105 571.595 360.105H589.071C589.924 360.105 590.615 359.422 590.615 358.58C590.615 357.738 589.924 357.055 589.071 357.055Z"
            fill="white" />
        <path
            d="M531.358 364.193H528.546C527.693 364.193 527.002 364.876 527.002 365.718C527.002 366.56 527.693 367.243 528.546 367.243H531.358C532.21 367.243 532.901 366.56 532.901 365.718C532.901 364.876 532.21 364.193 531.358 364.193Z"
            fill="white" />
        <path
            d="M563.516 364.193H560.704C559.852 364.193 559.161 364.876 559.161 365.718C559.161 366.56 559.852 367.243 560.704 367.243H563.516C564.368 367.243 565.06 366.56 565.06 365.718C565.06 364.876 564.368 364.193 563.516 364.193Z"
            fill="white" />
        <path
            d="M572.628 364.193H569.816C568.963 364.193 568.272 364.876 568.272 365.718C568.272 366.56 568.963 367.243 569.816 367.243H572.628C573.48 367.243 574.171 366.56 574.171 365.718C574.171 364.876 573.48 364.193 572.628 364.193Z"
            fill="white" />
        <path
            d="M554.769 363.938H537.293C536.441 363.938 535.75 364.621 535.75 365.463C535.75 366.306 536.441 366.988 537.293 366.988H554.769C555.621 366.988 556.312 366.306 556.312 365.463C556.312 364.621 555.621 363.938 554.769 363.938Z"
            fill="white" />
        <path
            d="M597.647 363.938H580.171C579.319 363.938 578.627 364.621 578.627 365.463C578.627 366.306 579.319 366.988 580.171 366.988H597.647C598.499 366.988 599.19 366.306 599.19 365.463C599.19 364.621 598.499 363.938 597.647 363.938Z"
            fill="white" />
        <path
            d="M539.933 371.076H537.121C536.269 371.076 535.578 371.759 535.578 372.601C535.578 373.443 536.269 374.126 537.121 374.126H539.933C540.786 374.126 541.477 373.443 541.477 372.601C541.477 371.759 540.786 371.076 539.933 371.076Z"
            fill="white" />
        <path
            d="M572.092 371.076H569.28C568.427 371.076 567.736 371.759 567.736 372.601C567.736 373.443 568.427 374.126 569.28 374.126H572.092C572.944 374.126 573.635 373.443 573.635 372.601C573.635 371.759 572.944 371.076 572.092 371.076Z"
            fill="white" />
        <path
            d="M581.203 371.076H578.391C577.539 371.076 576.848 371.759 576.848 372.601C576.848 373.443 577.539 374.126 578.391 374.126H581.203C582.056 374.126 582.747 373.443 582.747 372.601C582.747 371.759 582.056 371.076 581.203 371.076Z"
            fill="white" />
        <path
            d="M563.344 370.822H545.868C545.016 370.822 544.325 371.505 544.325 372.347C544.325 373.189 545.016 373.872 545.868 373.872H563.344C564.197 373.872 564.888 373.189 564.888 372.347C564.888 371.505 564.197 370.822 563.344 370.822Z"
            fill="white" />
        <path
            d="M546.365 398.448H543.553C542.701 398.448 542.01 399.13 542.01 399.972C542.01 400.815 542.701 401.497 543.553 401.497H546.365C547.217 401.497 547.909 400.815 547.909 399.972C547.909 399.13 547.217 398.448 546.365 398.448Z"
            fill="white" />
        <path
            d="M555.477 398.448H552.665C551.812 398.448 551.121 399.13 551.121 399.972C551.121 400.815 551.812 401.497 552.665 401.497H555.477C556.329 401.497 557.02 400.815 557.02 399.972C557.02 399.13 556.329 398.448 555.477 398.448Z"
            fill="white" />
        <path
            d="M580.496 398.702H563.02C562.167 398.702 561.476 399.385 561.476 400.227C561.476 401.069 562.167 401.752 563.02 401.752H580.496C581.348 401.752 582.039 401.069 582.039 400.227C582.039 399.385 581.348 398.702 580.496 398.702Z"
            fill="white" />
        <path
            d="M514.206 398.448H511.395C510.542 398.448 509.851 399.13 509.851 399.972C509.851 400.815 510.542 401.497 511.395 401.497H514.206C515.059 401.497 515.75 400.815 515.75 399.972C515.75 399.13 515.059 398.448 514.206 398.448Z"
            fill="white" />
        <path
            d="M537.618 398.702H520.142C519.289 398.702 518.598 399.385 518.598 400.227C518.598 401.069 519.289 401.752 520.142 401.752H537.618C538.47 401.752 539.161 401.069 539.161 400.227C539.161 399.385 538.47 398.702 537.618 398.702Z"
            fill="white" />
        <path
            d="M522.782 391.564H519.97C519.118 391.564 518.427 392.247 518.427 393.089C518.427 393.931 519.118 394.614 519.97 394.614H522.782C523.634 394.614 524.326 393.931 524.326 393.089C524.326 392.247 523.634 391.564 522.782 391.564Z"
            fill="white" />
        <path
            d="M554.94 391.564H552.129C551.276 391.564 550.585 392.247 550.585 393.089C550.585 393.931 551.276 394.614 552.129 394.614H554.94C555.793 394.614 556.484 393.931 556.484 393.089C556.484 392.247 555.793 391.564 554.94 391.564Z"
            fill="white" />
        <path
            d="M564.052 391.564H561.24C560.388 391.564 559.697 392.247 559.697 393.089C559.697 393.931 560.388 394.614 561.24 394.614H564.052C564.905 394.614 565.596 393.931 565.596 393.089C565.596 392.247 564.905 391.564 564.052 391.564Z"
            fill="white" />
        <path
            d="M546.193 391.818H528.717C527.865 391.818 527.174 392.501 527.174 393.343C527.174 394.185 527.865 394.868 528.717 394.868H546.193C547.046 394.868 547.737 394.185 547.737 393.343C547.737 392.501 547.046 391.818 546.193 391.818Z"
            fill="white" />
        <path
            d="M531.358 384.681H528.546C527.693 384.681 527.002 385.363 527.002 386.206C527.002 387.048 527.693 387.73 528.546 387.73H531.358C532.21 387.73 532.901 387.048 532.901 386.206C532.901 385.363 532.21 384.681 531.358 384.681Z"
            fill="white" />
        <path
            d="M563.516 384.681H560.704C559.852 384.681 559.161 385.363 559.161 386.206C559.161 387.048 559.852 387.73 560.704 387.73H563.516C564.368 387.73 565.06 387.048 565.06 386.206C565.06 385.363 564.368 384.681 563.516 384.681Z"
            fill="white" />
        <path
            d="M572.628 384.681H569.816C568.963 384.681 568.272 385.363 568.272 386.206C568.272 387.048 568.963 387.73 569.816 387.73H572.628C573.48 387.73 574.171 387.048 574.171 386.206C574.171 385.363 573.48 384.681 572.628 384.681Z"
            fill="white" />
        <path
            d="M554.769 384.935H537.293C536.441 384.935 535.75 385.618 535.75 386.46C535.75 387.302 536.441 387.985 537.293 387.985H554.769C555.621 387.985 556.312 387.302 556.312 386.46C556.312 385.618 555.621 384.935 554.769 384.935Z"
            fill="white" />
        <path
            d="M539.933 377.797H537.121C536.269 377.797 535.578 378.48 535.578 379.322C535.578 380.164 536.269 380.847 537.121 380.847H539.933C540.786 380.847 541.477 380.164 541.477 379.322C541.477 378.48 540.786 377.797 539.933 377.797Z"
            fill="white" />
        <path
            d="M572.092 377.797H569.28C568.427 377.797 567.736 378.48 567.736 379.322C567.736 380.164 568.427 380.847 569.28 380.847H572.092C572.944 380.847 573.635 380.164 573.635 379.322C573.635 378.48 572.944 377.797 572.092 377.797Z"
            fill="white" />
        <path
            d="M581.203 377.797H578.391C577.539 377.797 576.848 378.48 576.848 379.322C576.848 380.164 577.539 380.847 578.391 380.847H581.203C582.056 380.847 582.747 380.164 582.747 379.322C582.747 378.48 582.056 377.797 581.203 377.797Z"
            fill="white" />
        <path
            d="M563.344 378.052H545.868C545.016 378.052 544.325 378.734 544.325 379.576C544.325 380.419 545.016 381.101 545.868 381.101H563.344C564.197 381.101 564.888 380.419 564.888 379.576C564.888 378.734 564.197 378.052 563.344 378.052Z"
            fill="white" />
        <path
            d="M499.257 479.118L486.057 458.506L527.49 425.877L544.591 407.16C546.813 404.728 549.642 402.915 552.795 401.902C555.948 400.888 559.316 400.71 562.56 401.385C565.805 402.061 568.814 403.565 571.285 405.749C573.757 407.933 575.606 410.719 576.646 413.829C578.187 418.439 577.856 423.459 575.721 427.832C573.587 432.204 569.816 435.586 565.205 437.264L538.163 447.106L499.257 479.118Z"
            fill="#FFB6B6" />
        <path
            d="M189.541 329.662V429.846H260.586V329.662C260.587 328.942 260.354 328.24 259.922 327.66C259.489 327.079 258.88 326.651 258.183 326.439C257.855 326.332 257.511 326.279 257.165 326.282H192.972C192.522 326.282 192.077 326.368 191.661 326.538C191.245 326.707 190.866 326.956 190.548 327.27C190.229 327.584 189.976 327.957 189.803 328.367C189.631 328.778 189.542 329.218 189.541 329.662ZM217.267 364.086C217.285 362.111 218.093 360.223 219.513 358.833C220.933 357.443 222.852 356.663 224.851 356.663C226.85 356.663 228.769 357.443 230.189 358.833C231.609 360.223 232.416 362.111 232.435 364.086V375.71C232.425 377.691 231.621 379.586 230.2 380.983C228.779 382.38 226.856 383.164 224.851 383.164C222.846 383.164 220.923 382.38 219.502 380.983C218.081 379.586 217.277 377.691 217.267 375.71V364.086Z"
            fill="#2F2E41" />
        <path
            d="M189.324 426.642V436.303C189.325 436.804 189.527 437.283 189.884 437.638C190.241 437.993 190.726 438.194 191.232 438.198H258.895C259.402 438.196 259.887 437.995 260.245 437.64C260.603 437.285 260.803 436.804 260.803 436.303V426.642H189.324Z"
            fill="#3F3D56" />
        <path
            d="M77.7783 178.722V361.644C77.7802 363.975 78.7184 366.21 80.3869 367.858C82.0554 369.507 84.3178 370.433 86.6774 370.435H361.067C363.426 370.433 365.689 369.507 367.357 367.858C369.026 366.21 369.964 363.975 369.966 361.644V178.722C369.96 176.393 369.021 174.161 367.353 172.515C365.685 170.869 363.424 169.943 361.067 169.94H86.6774C84.3199 169.943 82.0596 170.869 80.3916 172.515C78.7236 174.161 77.7839 176.393 77.7783 178.722Z"
            fill="#3F3D56" />
        <path
            d="M84.2153 180.998V359.387C84.2175 360.633 84.7193 361.827 85.6107 362.707C86.5022 363.588 87.7107 364.084 88.9714 364.086H358.783C360.043 364.084 361.252 363.588 362.143 362.707C363.035 361.827 363.537 360.633 363.539 359.387V180.998C363.539 179.751 363.038 178.555 362.146 177.672C361.255 176.79 360.045 176.293 358.783 176.29H88.9714C87.7092 176.293 86.4995 176.79 85.6079 177.672C84.7163 178.555 84.2155 179.751 84.2153 180.998Z"
            fill="white" />
        <path
            d="M134.288 437.544C134.562 437.884 134.911 438.158 135.309 438.346C135.706 438.534 136.141 438.63 136.582 438.628H297.102C297.541 438.627 297.974 438.53 298.37 438.343C298.767 438.157 299.116 437.885 299.392 437.548C299.669 437.211 299.866 436.818 299.969 436.396C300.072 435.975 300.079 435.536 299.989 435.111L297.497 423.419C297.394 422.942 297.172 422.498 296.851 422.128C296.529 421.758 296.119 421.473 295.658 421.299C295.324 421.169 294.969 421.103 294.61 421.104H139.064C138.705 421.103 138.349 421.169 138.015 421.299C137.554 421.473 137.144 421.758 136.823 422.128C136.502 422.498 136.279 422.942 136.176 423.419L133.684 435.111C133.596 435.535 133.604 435.974 133.708 436.395C133.813 436.815 134.011 437.208 134.288 437.544Z"
            fill="#2F2E41" />
        <path
            d="M350.027 200.864H97.5652C97.3028 200.858 97.0531 200.751 96.8695 200.565C96.686 200.38 96.5833 200.131 96.5833 199.872C96.5833 199.612 96.686 199.363 96.8695 199.178C97.0531 198.993 97.3028 198.886 97.5652 198.88H350.027C350.289 198.886 350.539 198.993 350.722 199.178C350.906 199.363 351.008 199.612 351.008 199.872C351.008 200.131 350.906 200.38 350.722 200.565C350.539 200.751 350.289 200.858 350.027 200.864Z"
            fill="#3F3D56" />
        <path
            d="M114.75 193.816C118 193.816 120.634 191.155 120.634 187.874C120.634 184.592 118 181.932 114.75 181.932C111.501 181.932 108.867 184.592 108.867 187.874C108.867 191.155 111.501 193.816 114.75 193.816Z"
            fill="#3F3D56" />
        <path
            d="M135.076 193.816C138.326 193.816 140.96 191.155 140.96 187.874C140.96 184.592 138.326 181.932 135.076 181.932C131.827 181.932 129.192 184.592 129.192 187.874C129.192 191.155 131.827 193.816 135.076 193.816Z"
            fill="#3F3D56" />
        <path
            d="M155.402 193.816C158.651 193.816 161.285 191.155 161.285 187.874C161.285 184.592 158.651 181.932 155.402 181.932C152.152 181.932 149.518 184.592 149.518 187.874C149.518 191.155 152.152 193.816 155.402 193.816Z"
            fill="#3F3D56" />
        <path
            d="M337.787 183.401H323.351C323.065 183.408 322.794 183.524 322.594 183.726C322.395 183.928 322.283 184.199 322.283 184.481C322.283 184.763 322.395 185.033 322.594 185.235C322.794 185.437 323.065 185.553 323.351 185.56H337.787C338.074 185.556 338.348 185.44 338.55 185.238C338.751 185.036 338.864 184.764 338.864 184.481C338.864 184.197 338.751 183.925 338.55 183.723C338.348 183.521 338.074 183.405 337.787 183.401Z"
            fill="#3F3D56" />
        <path
            d="M337.787 187.455H323.35C323.065 187.461 322.793 187.578 322.593 187.78C322.394 187.981 322.282 188.252 322.282 188.534C322.282 188.817 322.394 189.088 322.593 189.289C322.793 189.491 323.065 189.608 323.35 189.614H337.787C338.074 189.61 338.349 189.495 338.551 189.293C338.753 189.091 338.866 188.819 338.866 188.534C338.866 188.25 338.753 187.978 338.551 187.776C338.349 187.574 338.074 187.458 337.787 187.455Z"
            fill="#3F3D56" />
        <path
            d="M337.787 191.509H323.351C323.065 191.515 322.794 191.632 322.594 191.834C322.395 192.035 322.283 192.306 322.283 192.588C322.283 192.87 322.395 193.141 322.594 193.343C322.794 193.544 323.065 193.661 323.351 193.668H337.787C338.074 193.664 338.348 193.548 338.55 193.346C338.751 193.144 338.864 192.872 338.864 192.588C338.864 192.305 338.751 192.032 338.55 191.83C338.348 191.628 338.074 191.513 337.787 191.509Z"
            fill="#3F3D56" />
        <path
            d="M685.821 430.882C686.256 432.135 687.083 433.22 688.181 433.98C689.28 434.74 690.594 435.137 691.935 435.113L718.129 434.447C719.48 434.421 720.786 433.964 721.852 433.144C722.918 432.324 723.687 431.185 724.043 429.898L727.75 390.739C729.065 391.328 730.497 391.618 731.941 391.59C733.195 391.559 734.43 391.284 735.577 390.781C736.724 390.278 737.759 389.557 738.623 388.659C739.488 387.761 740.165 386.703 740.616 385.547C741.066 384.39 741.282 383.157 741.251 381.918C741.219 380.679 740.941 379.459 740.432 378.326C739.923 377.193 739.193 376.171 738.284 375.317C737.375 374.462 736.305 373.794 735.134 373.348C733.963 372.903 732.715 372.69 731.461 372.721C730.884 372.719 730.309 372.778 729.744 372.897C729.131 372.241 728.385 371.72 727.555 371.366C726.725 371.012 725.829 370.834 724.925 370.843L684.631 371.871C684.297 371.883 683.964 371.924 683.637 371.993C682.754 372.155 681.916 372.503 681.179 373.013C680.443 373.522 679.826 374.182 679.37 374.947C678.913 375.712 678.628 376.564 678.533 377.447C678.438 378.33 678.535 379.223 678.819 380.066L685.821 430.882ZM728.51 388.08L731.148 378.749C731.448 377.671 731.455 376.534 731.168 375.453C731.296 375.452 731.409 375.392 731.537 375.392C733.346 375.355 735.095 376.028 736.402 377.264C737.709 378.499 738.467 380.196 738.509 381.983C738.552 383.77 737.875 385.5 736.628 386.794C735.381 388.089 733.665 388.842 731.857 388.889C730.688 388.925 729.531 388.646 728.51 388.08Z"
            fill="#2F2E41" />
        <path
            d="M683.637 371.993C684.496 376.842 694.147 380.251 705.752 379.658C716.424 379.172 725.15 375.47 726.749 371.083C726.157 370.91 725.542 370.829 724.925 370.843L684.631 371.871C684.297 371.883 683.964 371.924 683.637 371.993Z"
            fill="#3F3D56" />
        <path
            d="M707.879 409.364C707.932 409.351 707.983 409.329 708.029 409.299L713.717 405.621C713.786 405.577 713.843 405.516 713.882 405.445C713.921 405.373 713.941 405.294 713.941 405.212C713.941 405.131 713.921 405.052 713.882 404.98C713.843 404.909 713.786 404.848 713.718 404.804L707.805 400.978C707.751 400.943 707.69 400.918 707.626 400.906C707.562 400.894 707.496 400.894 707.433 400.907C707.369 400.92 707.308 400.945 707.255 400.981C707.201 401.018 707.155 401.064 707.119 401.118C707.083 401.171 707.059 401.231 707.047 401.295C707.035 401.358 707.035 401.423 707.049 401.486C707.062 401.549 707.088 401.608 707.125 401.661C707.161 401.714 707.209 401.76 707.263 401.795L712.544 405.212L707.487 408.482C707.39 408.545 707.318 408.641 707.284 408.752C707.251 408.862 707.258 408.981 707.305 409.087C707.352 409.193 707.436 409.279 707.541 409.329C707.646 409.38 707.766 409.393 707.879 409.364Z"
            fill="#FF0066" />
        <path
            d="M698.894 409.774C698.99 409.75 699.076 409.698 699.142 409.626C699.207 409.553 699.249 409.463 699.263 409.366C699.276 409.27 699.26 409.172 699.217 409.085C699.173 408.997 699.104 408.925 699.019 408.876L693.775 405.906L698.844 402.187C698.896 402.149 698.94 402.101 698.973 402.046C699.006 401.991 699.028 401.93 699.038 401.867C699.047 401.803 699.044 401.739 699.028 401.677C699.012 401.615 698.984 401.556 698.945 401.505C698.907 401.453 698.858 401.41 698.803 401.377C698.747 401.344 698.685 401.322 698.621 401.313C698.557 401.303 698.491 401.307 698.428 401.322C698.366 401.338 698.306 401.366 698.254 401.404L692.58 405.568C692.514 405.616 692.461 405.68 692.427 405.753C692.392 405.827 692.376 405.908 692.381 405.989C692.386 406.069 692.411 406.148 692.454 406.217C692.497 406.286 692.557 406.343 692.629 406.383L698.527 409.724C698.638 409.787 698.77 409.805 698.894 409.774Z"
            fill="#FF0066" />
        <path
            d="M707.314 412.588C707.361 412.576 707.407 412.557 707.449 412.531C707.505 412.498 707.553 412.454 707.591 412.402C707.63 412.351 707.657 412.292 707.673 412.229C707.688 412.167 707.691 412.102 707.681 412.039C707.671 411.976 707.649 411.915 707.615 411.86L699.551 398.762C699.482 398.652 699.372 398.573 699.245 398.542C699.118 398.512 698.983 398.533 698.871 398.6C698.759 398.667 698.679 398.776 698.648 398.902C698.617 399.027 698.638 399.16 698.706 399.271L706.77 412.368C706.825 412.458 706.907 412.527 707.005 412.566C707.103 412.606 707.211 412.613 707.314 412.588Z"
            fill="#FF0066" />
        <path
            d="M253.96 254.784H210.265C208.482 254.784 207.037 256.212 207.037 257.973V262.19C207.037 263.951 208.482 265.379 210.265 265.379H253.96C255.743 265.379 257.188 263.951 257.188 262.19V257.973C257.188 256.212 255.743 254.784 253.96 254.784Z"
            fill="#FF0066" />
        <path
            d="M279.43 275.973H184.795C183.013 275.973 181.568 277.401 181.568 279.162V283.379C181.568 285.14 183.013 286.568 184.795 286.568H279.43C281.213 286.568 282.658 285.14 282.658 283.379V279.162C282.658 277.401 281.213 275.973 279.43 275.973Z"
            fill="#E6E6E6" />
        <path
            d="M279.43 297.162H184.795C183.013 297.162 181.568 298.59 181.568 300.351V304.568C181.568 306.329 183.013 307.757 184.795 307.757H279.43C281.213 307.757 282.658 306.329 282.658 304.568V300.351C282.658 298.59 281.213 297.162 279.43 297.162Z"
            fill="#E6E6E6" />
        <path
            d="M287.452 368.115L287.667 368.784L287.678 368.806L294.13 388.185L301.552 410.516L315.517 452.482L315.652 459.001V459.023L316.69 511.464L313.813 518.573L317.051 530.229C317.051 530.229 315.562 512.61 307.576 522.728C303.052 528.478 297.762 534.362 293.419 539.878C299.747 542.408 306.177 544.696 312.708 546.742C314.118 547.188 315.539 547.611 316.96 548.035C317.265 548.124 317.569 548.213 317.874 548.302C339.523 554.627 361.905 558.181 384.47 558.877C385.643 558.911 386.794 558.933 387.91 558.955C388.305 558.967 388.689 558.978 389.072 558.978C390.335 558.989 391.587 559 392.851 559C395.4 559 397.938 558.963 400.465 558.889C419.166 558.368 437.758 555.884 455.927 551.478C455.803 544.068 455.465 535.409 454.98 526.16C454.754 521.625 449.69 516.711 449.385 511.964C449.171 508.398 453.717 505.044 453.48 501.422C451.946 479.124 450.028 487.684 448.607 471.894C448.46 470.345 448.325 468.863 448.201 467.447C447.287 457.307 446.655 450.966 446.655 450.966L452.724 413.179L462.255 353.852L461.522 352.659L460.699 352.258L410.425 327.676L407.695 320.767C406.9 318.777 405.52 317.067 403.733 315.857C401.946 314.648 399.833 313.994 397.667 313.981L364.55 313.847C362.831 313.839 361.135 314.237 359.603 315.006C358.071 315.775 356.747 316.895 355.74 318.271L346.773 330.54L287.452 368.115Z"
            fill="#3F3D56" />
        <path
            d="M323.153 443.144L315.652 459.001L310.531 469.832L301.721 515.397L297.311 520.022L293.532 503.651L253.983 512.326C252.686 505.205 253.636 512.567 252.835 504.755C253.06 504.533 253.297 504.31 253.534 504.087C254.166 503.507 254.696 502.961 254.685 502.438C254.233 475.493 255.587 429.638 266.889 401.857C268.66 397.322 270.993 393.021 273.838 389.054C274.063 388.753 274.278 388.452 274.492 388.151C279.703 380.941 282.997 373.843 287.667 368.795V368.784C287.696 368.761 287.722 368.735 287.746 368.706C287.763 368.697 287.778 368.686 287.791 368.672L319.87 351.868L321.247 390.068L322.228 417.525L323.153 443.144Z"
            fill="#3F3D56" />
        <path
            d="M438.827 447.648L448.196 467.453L451.467 474.35L460.274 519.911L464.67 524.525L468.457 508.158L470.237 507.797L502.331 501.23L511.686 530.58C513.794 527.11 514.625 523.027 514.037 519.021C513.45 515.015 511.48 511.333 508.461 508.596C507.822 508.025 507.29 507.469 507.305 506.943C507.838 475.252 505.875 417.384 488.155 393.566C482.527 386.008 479.15 378.479 474.237 373.22C474.222 373.205 474.222 373.19 474.207 373.19L462.251 353.851L461.521 352.663L460.7 352.258L438.827 447.648Z"
            fill="#3F3D56" />
        <path
            d="M382.065 304.536C406.398 304.536 426.124 285.049 426.124 261.01C426.124 236.971 406.398 217.484 382.065 217.484C357.732 217.484 338.006 236.971 338.006 261.01C338.006 285.049 357.732 304.536 382.065 304.536Z"
            fill="#FFB6B6" />
        <path
            d="M441.616 230.608C441.274 230.247 440.863 229.958 440.406 229.759C439.949 229.559 439.456 229.452 438.956 229.445L439.618 227.628C439.835 227.056 439.893 226.437 439.787 225.835C439.682 225.233 439.416 224.67 439.018 224.203C438.62 223.736 438.103 223.381 437.52 223.177C436.938 222.972 436.31 222.924 435.703 223.037L433.29 223.496L433.518 221.904C433.605 221.311 433.534 220.706 433.313 220.148C433.091 219.59 432.727 219.099 432.255 218.722C431.783 218.346 431.22 218.097 430.622 218C430.023 217.904 429.409 217.963 428.841 218.172C428.323 218.374 427.767 218.458 427.213 218.419C426.659 218.38 426.12 218.219 425.637 217.948C425.152 217.685 424.731 217.32 424.403 216.88C424.075 216.44 423.848 215.934 423.738 215.398L422.898 211.393L422.809 211.178C418.715 204.438 410.845 199.534 401.214 197.737C392.641 196.125 383.851 196.946 375.377 197.718C372.015 198.03 368.218 198.382 365.054 200.296C362.364 201.937 360.09 205.22 360.555 208.531C352.199 206.001 343.241 211.051 338.801 217.42C333.541 225 332.681 234.495 332.542 241.919C332.167 259.483 335.835 273.852 343.419 284.636C343.973 285.418 344.111 287.049 345.209 287.596L344.981 287.234C346.207 287.84 347.453 288.817 346.989 289.862C345.654 292.871 354.523 299.523 360.772 301.721C372.173 305.736 387.331 305.394 397.99 303.948L398.366 301.457C402.212 300.939 404.922 299.953 405.683 298.409C407.028 297.276 408.175 296.26 409.174 295.323L409.183 295.313C409.203 295.293 409.243 295.264 409.263 295.244C414.078 290.683 415.195 288.084 415.7 284.128C416.184 280.25 415.324 276.314 414.444 272.768C432.974 275.6 407.147 253.27 424.411 248.952C424.609 248.892 424.81 248.843 425.014 248.806C425.518 248.689 426.023 248.571 426.507 248.435C428.843 247.808 431.079 246.865 433.152 245.631C437.977 242.73 439.569 238.881 442.061 234.544C442.42 233.927 442.571 233.212 442.491 232.504C442.411 231.796 442.104 231.132 441.616 230.608Z"
            fill="#2F2E41" />
        <path
            d="M537.894 450.746C537.884 452.456 537.865 454.849 537.786 457.809C537.776 458.219 537.766 458.639 537.756 459.069C537.627 464.51 537.499 469.072 537.291 474.141C537.281 474.493 537.271 474.835 537.252 475.187C536.975 482.259 536.54 490.494 535.788 503.534C534.394 527.623 531.962 506.846 529.519 515.295C529.401 515.715 529.272 516.214 529.153 516.8C528.784 518.926 528.16 521.002 527.294 522.983C525.999 523.745 524.664 524.478 523.349 525.21C519.602 527.271 515.795 529.254 511.958 531.14C509.803 532.195 507.637 533.23 505.462 534.226C505.116 534.383 504.78 534.539 504.444 534.686C493.304 539.776 481.824 544.104 470.083 547.638C467.789 548.322 465.505 548.986 463.191 549.602C460.779 550.266 458.366 550.891 455.924 551.477C437.755 555.884 419.163 558.369 400.462 558.891C397.941 558.97 395.4 558.999 392.849 558.999C391.583 558.999 390.337 558.989 389.072 558.979C388.686 558.979 388.3 558.97 387.915 558.96C386.797 558.931 385.64 558.911 384.474 558.882C361.908 558.186 339.527 554.631 317.879 548.303L316.959 548.039C315.535 547.609 314.121 547.189 312.707 546.74C306.181 544.698 299.751 542.412 293.416 539.882C288.581 537.958 283.802 535.894 279.079 533.689C279.035 533.678 278.995 533.658 278.96 533.631C277.971 533.181 276.972 532.712 275.984 532.234C275.855 532.165 275.717 532.097 275.578 532.029C271.89 530.251 268.241 528.388 264.632 526.441C261.597 519.554 257.325 518.236 254.675 512.179C253.904 510.38 253.346 508.498 253.014 506.572C253.014 506.553 253.004 506.533 253.004 506.504C253.281 510.138 251.827 500.057 252.994 506.465C252.984 506.348 252.974 506.221 252.965 506.074C252.935 505.722 252.895 505.293 252.836 504.755C249.445 472.041 249.662 434.629 248.189 403.8C248.09 401.807 247.988 399.899 247.882 398.076C247.853 397.47 247.813 396.874 247.773 396.288C247.843 396.112 247.922 395.926 248.011 395.751C248.03 395.7 248.053 395.651 248.08 395.604C248.109 395.544 248.142 395.485 248.179 395.428C248.199 395.399 248.228 395.36 248.248 395.331C248.263 395.297 248.279 395.264 248.297 395.233C248.386 395.096 248.485 394.95 248.594 394.813C248.644 394.754 248.683 394.705 248.733 394.657C248.767 394.607 248.807 394.561 248.851 394.52C248.882 394.473 248.918 394.43 248.96 394.393C249 394.354 249.039 394.305 249.089 394.256C249.11 394.225 249.137 394.199 249.168 394.178C249.246 394.089 249.332 394.008 249.425 393.934C249.777 393.613 250.154 393.319 250.552 393.055C250.69 392.967 250.839 392.879 250.977 392.781C251.974 392.192 253.023 391.695 254.112 391.296C254.487 391.16 254.863 391.033 255.268 390.896C255.417 390.857 255.555 390.808 255.704 390.759C255.921 390.691 256.139 390.622 256.366 390.574C257.493 390.241 258.709 389.958 260.025 389.694C260.183 389.665 260.351 389.636 260.519 389.597C260.756 389.548 261.003 389.509 261.251 389.47C261.587 389.411 261.933 389.352 262.279 389.294C265.216 388.835 268.548 388.493 272.226 388.268C272.572 388.249 272.918 388.229 273.264 388.21C273.67 388.19 274.075 388.171 274.491 388.151C274.837 388.131 275.193 388.122 275.549 388.112C275.895 388.092 276.251 388.083 276.616 388.073C277.615 388.044 278.643 388.014 279.692 387.995C282.678 387.936 285.822 387.956 289.125 388.024C290.657 388.063 292.22 388.102 293.821 388.17C293.93 388.17 294.029 388.18 294.128 388.18C295.522 388.229 296.926 388.288 298.37 388.366C299.378 388.415 300.397 388.464 301.415 388.522C302.374 388.581 303.343 388.639 304.322 388.708C305.084 388.747 305.845 388.805 306.616 388.854C307.269 388.903 307.922 388.952 308.574 388.991L309.464 389.05C309.948 389.089 310.433 389.118 310.927 389.167C312.015 389.255 313.103 389.343 314.21 389.431C315.308 389.528 316.425 389.626 317.542 389.724C318.66 389.821 319.787 389.929 320.914 390.036C321.033 390.046 321.142 390.056 321.25 390.066C322.279 390.173 323.307 390.271 324.345 390.378C324.583 390.398 324.83 390.417 325.067 390.447C326.057 390.545 327.066 390.66 328.065 390.765C328.372 390.797 328.677 390.829 328.984 390.862C329.767 390.946 330.538 391.019 331.326 391.111C332.364 391.228 333.422 391.335 334.451 391.472C335.252 391.56 336.053 391.648 336.853 391.746C338.109 391.892 339.385 392.049 340.66 392.215C341.145 392.273 341.629 392.332 342.114 392.4C345.753 392.85 349.431 393.348 353.168 393.865C358.834 394.657 364.589 395.516 370.383 396.444C376.188 397.372 382.025 398.352 387.895 399.385C389.378 399.648 390.861 399.912 392.354 400.186C393.027 400.312 393.699 400.439 394.371 400.566C395.518 400.772 396.665 400.986 397.812 401.201C398.959 401.416 400.106 401.631 401.253 401.856C402.618 402.12 403.992 402.383 405.357 402.647C414.345 404.405 423.284 406.281 432.005 408.244C433.438 408.567 434.872 408.899 436.296 409.221C439.144 409.876 441.965 410.54 444.76 411.214C445.531 411.39 446.293 411.575 447.054 411.761C448.953 412.23 450.851 412.699 452.72 413.177L453.046 413.265C454.421 413.597 455.765 413.939 457.11 414.291C460.284 415.112 463.405 415.942 466.474 416.782C468.511 417.339 470.525 417.902 472.515 418.472C475.492 419.322 478.409 420.181 481.246 421.051C481.949 421.266 482.651 421.48 483.343 421.686C485.419 422.32 487.466 422.965 489.453 423.61C491.035 424.118 492.578 424.636 494.101 425.153C495.623 425.671 497.117 426.189 498.58 426.706C499.519 427.039 500.449 427.39 501.378 427.722C502.713 428.211 504.028 428.699 505.314 429.188C505.709 429.334 506.095 429.49 506.48 429.637C506.728 429.744 506.965 429.832 507.202 429.93C507.667 430.116 508.142 430.291 508.596 430.477C509.061 430.653 509.516 430.838 509.971 431.034C510.416 431.21 510.871 431.395 511.306 431.581C511.751 431.757 512.186 431.942 512.621 432.138C512.987 432.284 513.343 432.441 513.689 432.597C514.391 432.9 515.093 433.202 515.775 433.515C516.111 433.671 516.447 433.818 516.784 433.974L517.555 434.326C517.664 434.384 517.772 434.433 517.881 434.482C518.128 434.599 518.385 434.726 518.633 434.844C519.206 435.107 519.77 435.391 520.323 435.654C521.065 436.025 521.787 436.397 522.479 436.758C523.181 437.129 523.863 437.501 524.516 437.862C524.625 437.92 524.724 437.979 524.832 438.038C524.981 438.116 525.129 438.204 525.277 438.282C525.782 438.565 526.266 438.858 526.751 439.142C527.7 439.718 528.6 440.284 529.44 440.851C529.628 440.978 529.806 441.105 529.994 441.222C530.617 441.662 531.21 442.092 531.764 442.531C531.764 442.541 531.764 442.541 531.774 442.541C531.962 442.678 532.14 442.824 532.318 442.961C532.466 443.098 532.624 443.215 532.772 443.352C533.286 443.791 533.761 444.211 534.196 444.641C534.342 444.774 534.481 444.914 534.612 445.061C534.669 445.108 534.722 445.161 534.77 445.217C534.967 445.413 535.145 445.608 535.314 445.803C535.34 445.83 535.363 445.86 535.383 445.891C535.62 446.165 535.838 446.438 536.045 446.712C536.144 446.849 536.253 446.985 536.342 447.122C536.461 447.288 536.579 447.464 536.678 447.63C536.767 447.767 536.846 447.913 536.925 448.05C537.135 448.402 537.314 448.772 537.459 449.154C537.57 449.413 537.66 449.681 537.726 449.955C537.801 450.215 537.857 450.479 537.894 450.746Z"
            fill="#2F2E41" />
        <path opacity="0.2"
            d="M537.894 450.746C537.884 452.456 537.865 454.849 537.786 457.809C537.776 458.219 537.756 458.639 537.746 459.069C537.647 463.221 537.499 468.349 537.291 474.142C537.281 474.493 537.271 474.835 537.252 475.187C536.975 482.259 536.54 490.494 535.788 503.534C534.394 527.623 531.962 506.846 529.519 515.296C522.736 511.173 515.3 506.856 507.351 502.421C505.917 501.62 504.47 500.816 503.01 500.008C487.11 491.246 469.351 482.064 450.812 472.969C450.08 472.608 449.338 472.246 448.607 471.895C406.138 451.157 359.784 430.985 322.229 417.524C314.981 414.926 308.06 412.582 301.554 410.52C287.849 406.193 276.003 403.165 266.887 401.856C257.394 400.488 250.839 400.977 248.189 403.8C248.09 401.807 247.988 399.899 247.882 398.076C247.842 397.47 247.803 396.874 247.763 396.288C247.824 396.127 247.904 395.974 247.981 395.819C247.991 395.796 247.999 395.773 248.011 395.751C248.03 395.7 248.053 395.651 248.08 395.604C248.109 395.544 248.142 395.485 248.179 395.428C248.211 395.359 248.251 395.294 248.297 395.233C248.386 395.096 248.485 394.95 248.594 394.813C248.674 394.71 248.76 394.613 248.851 394.52C248.881 394.473 248.918 394.43 248.96 394.393C248.999 394.354 249.039 394.305 249.088 394.256C249.11 394.225 249.136 394.199 249.168 394.178C249.246 394.089 249.332 394.008 249.425 393.934C249.777 393.613 250.154 393.319 250.552 393.055C250.69 392.967 250.839 392.879 250.977 392.781C251.973 392.192 253.023 391.695 254.111 391.296C254.487 391.16 254.863 391.033 255.268 390.896C255.417 390.857 255.555 390.808 255.703 390.759C255.921 390.691 256.138 390.622 256.366 390.574C257.493 390.241 258.709 389.958 260.024 389.694C260.42 389.616 260.835 389.538 261.251 389.47C261.587 389.411 261.933 389.352 262.279 389.294C265.216 388.835 268.548 388.493 272.226 388.268C272.572 388.249 272.918 388.229 273.264 388.21C273.67 388.19 274.075 388.17 274.49 388.151C274.837 388.131 275.192 388.122 275.548 388.112C275.895 388.092 276.251 388.083 276.616 388.073C277.615 388.044 278.643 388.014 279.691 387.995C282.678 387.946 285.822 387.965 289.125 388.034C290.657 388.063 292.219 388.112 293.821 388.18C293.92 388.18 294.029 388.19 294.128 388.19C295.522 388.229 296.936 388.297 298.37 388.366C299.378 388.415 300.397 388.464 301.415 388.522C302.374 388.581 303.343 388.639 304.322 388.708C305.084 388.747 305.845 388.805 306.616 388.854C307.269 388.903 307.921 388.952 308.574 388.991C309.355 389.05 310.136 389.108 310.927 389.167C312.015 389.255 313.103 389.343 314.21 389.431C315.308 389.528 316.425 389.626 317.542 389.724C318.66 389.821 319.787 389.929 320.914 390.036C321.033 390.046 321.142 390.056 321.25 390.066C322.279 390.173 323.307 390.271 324.345 390.378C330.1 390.954 336.023 391.628 342.114 392.4C345.753 392.859 349.437 393.351 353.168 393.875C358.834 394.666 364.589 395.526 370.383 396.444C376.188 397.372 382.025 398.352 387.895 399.385C389.378 399.648 390.861 399.912 392.354 400.186C394.174 400.518 395.993 400.856 397.812 401.201C398.959 401.416 400.106 401.631 401.253 401.856C402.618 402.12 403.992 402.383 405.357 402.647C414.345 404.405 423.284 406.281 432.005 408.244C433.438 408.567 434.872 408.899 436.296 409.221C439.144 409.876 441.965 410.54 444.76 411.214C445.531 411.4 446.293 411.585 447.054 411.771C448.962 412.24 450.851 412.709 452.72 413.177V413.187C452.829 413.207 452.937 413.236 453.046 413.265C454.411 413.607 455.765 413.949 457.11 414.301C460.284 415.121 463.405 415.948 466.474 416.782C468.511 417.348 470.528 417.905 472.515 418.472C475.492 419.331 478.409 420.191 481.246 421.051C481.949 421.266 482.651 421.48 483.343 421.686C485.419 422.33 487.456 422.972 489.453 423.61C491.035 424.118 492.578 424.636 494.101 425.153C495.623 425.671 497.117 426.189 498.58 426.707C499.529 427.039 500.459 427.381 501.378 427.713C502.723 428.201 504.028 428.689 505.314 429.188C505.709 429.334 506.095 429.491 506.48 429.637C507.202 429.911 507.904 430.194 508.596 430.477C509.061 430.653 509.516 430.839 509.971 431.034C510.416 431.21 510.871 431.395 511.306 431.581C511.751 431.757 512.186 431.942 512.621 432.138C512.987 432.284 513.343 432.441 513.689 432.597C514.391 432.9 515.093 433.202 515.775 433.515C516.111 433.671 516.447 433.818 516.784 433.974L517.555 434.326C517.664 434.384 517.772 434.433 517.881 434.482C518.722 434.873 519.532 435.264 520.323 435.654C521.065 436.026 521.787 436.397 522.479 436.758C523.3 437.188 524.081 437.608 524.832 438.038C524.981 438.116 525.129 438.204 525.277 438.282C525.782 438.565 526.266 438.858 526.751 439.142C527.7 439.718 528.6 440.284 529.44 440.851C530.271 441.418 531.042 441.974 531.764 442.531C531.764 442.541 531.764 442.541 531.774 442.541C532.12 442.814 532.456 443.088 532.772 443.352C533.286 443.791 533.761 444.211 534.196 444.641C534.342 444.774 534.481 444.914 534.611 445.061C534.669 445.108 534.722 445.161 534.77 445.217C534.977 445.442 535.185 445.667 535.383 445.891C535.62 446.165 535.838 446.438 536.045 446.712C536.144 446.849 536.253 446.985 536.342 447.122C536.461 447.288 536.579 447.464 536.678 447.63C536.767 447.767 536.846 447.914 536.925 448.05C537.135 448.402 537.314 448.772 537.459 449.154C537.567 449.414 537.657 449.682 537.726 449.955C537.801 450.215 537.857 450.479 537.894 450.746Z"
            fill="black" />
    </g>
    <defs>
        <clipPath id="clip0_76_268">
            <rect width="778" height="559" fill="white" />
        </clipPath>
    </defs>
</svg>