<svg width="295" height="64" viewBox="0 0 295 64" fill="none" xmlns="http://www.w3.org/2000/svg">
<rect x="1.5" y="22.5" width="62" height="40" rx="1.5" stroke="#FF0066" stroke-width="3"/>
<path d="M33.5 3C33.5 2.17157 34.1716 1.5 35 1.5H94C94.8284 1.5 95.5 2.17157 95.5 3V40C95.5 40.8284 94.8284 41.5 94 41.5H35C34.1716 41.5 33.5 40.8284 33.5 40V3Z" stroke="#FF0066" stroke-width="3"/>
<path d="M137.6 48.25C136.5 48.25 135.542 48.0417 134.725 47.625C133.925 47.2083 133.3 46.6083 132.85 45.825C132.417 45.025 132.2 44.0833 132.2 43V34.75C132.2 33.65 132.417 32.7083 132.85 31.925C133.3 31.1417 133.925 30.5417 134.725 30.125C135.542 29.7083 136.5 29.5 137.6 29.5C138.7 29.5 139.65 29.7167 140.45 30.15C141.25 30.5667 141.867 31.1667 142.3 31.95C142.733 32.7333 142.95 33.6667 142.95 34.75H140.7C140.7 33.7167 140.425 32.925 139.875 32.375C139.342 31.8083 138.583 31.525 137.6 31.525C136.617 31.525 135.842 31.8 135.275 32.35C134.725 32.9 134.45 33.6917 134.45 34.725V43C134.45 44.0333 134.725 44.8333 135.275 45.4C135.842 45.95 136.617 46.225 137.6 46.225C138.583 46.225 139.342 45.95 139.875 45.4C140.425 44.8333 140.7 44.0333 140.7 43H142.95C142.95 44.0667 142.733 45 142.3 45.8C141.867 46.5833 141.25 47.1917 140.45 47.625C139.65 48.0417 138.7 48.25 137.6 48.25ZM152.49 48.2C151.39 48.2 150.44 47.9917 149.64 47.575C148.84 47.1583 148.215 46.5583 147.765 45.775C147.332 44.975 147.115 44.0333 147.115 42.95V39.3C147.115 38.2 147.332 37.2583 147.765 36.475C148.215 35.6917 148.84 35.0917 149.64 34.675C150.44 34.2583 151.39 34.05 152.49 34.05C153.59 34.05 154.54 34.2583 155.34 34.675C156.14 35.0917 156.757 35.6917 157.19 36.475C157.64 37.2583 157.865 38.1917 157.865 39.275V42.95C157.865 44.0333 157.64 44.975 157.19 45.775C156.757 46.5583 156.14 47.1583 155.34 47.575C154.54 47.9917 153.59 48.2 152.49 48.2ZM152.49 46.2C153.474 46.2 154.24 45.925 154.79 45.375C155.34 44.825 155.615 44.0167 155.615 42.95V39.3C155.615 38.2333 155.34 37.425 154.79 36.875C154.24 36.325 153.474 36.05 152.49 36.05C151.524 36.05 150.757 36.325 150.19 36.875C149.64 37.425 149.365 38.2333 149.365 39.3V42.95C149.365 44.0167 149.64 44.825 150.19 45.375C150.757 45.925 151.524 46.2 152.49 46.2ZM166.68 48.25C165.314 48.25 164.205 47.7917 163.355 46.875C162.522 45.9583 162.105 44.7167 162.105 43.15V39.125C162.105 37.5417 162.522 36.2917 163.355 35.375C164.189 34.4583 165.297 34 166.68 34C167.814 34 168.722 34.3083 169.405 34.925C170.089 35.5417 170.43 36.3667 170.43 37.4L169.98 36.875H170.48L170.43 33.75V29.75H172.68V48H170.43V45.375H169.98L170.43 44.85C170.43 45.9 170.089 46.7333 169.405 47.35C168.722 47.95 167.814 48.25 166.68 48.25ZM167.43 46.3C168.364 46.3 169.097 46.0083 169.63 45.425C170.164 44.8417 170.43 44.0333 170.43 43V39.25C170.43 38.2167 170.164 37.4083 169.63 36.825C169.097 36.2417 168.364 35.95 167.43 35.95C166.48 35.95 165.73 36.2333 165.18 36.8C164.63 37.3667 164.355 38.1833 164.355 39.25V43C164.355 44.0667 164.63 44.8833 165.18 45.45C165.73 46.0167 166.48 46.3 167.43 46.3ZM182.471 48.25C181.387 48.25 180.437 48.0333 179.621 47.6C178.821 47.1667 178.196 46.5583 177.746 45.775C177.312 44.975 177.096 44.05 177.096 43V39.25C177.096 38.1833 177.312 37.2583 177.746 36.475C178.196 35.6917 178.821 35.0833 179.621 34.65C180.437 34.2167 181.387 34 182.471 34C183.554 34 184.496 34.2167 185.296 34.65C186.112 35.0833 186.737 35.6917 187.171 36.475C187.621 37.2583 187.846 38.1833 187.846 39.25V41.675H179.296V43C179.296 44.0833 179.571 44.9167 180.121 45.5C180.671 46.0667 181.454 46.35 182.471 46.35C183.337 46.35 184.037 46.2 184.571 45.9C185.104 45.5833 185.429 45.1167 185.546 44.5H187.796C187.646 45.65 187.079 46.5667 186.096 47.25C185.129 47.9167 183.921 48.25 182.471 48.25ZM185.646 40.175V39.25C185.646 38.1667 185.371 37.3333 184.821 36.75C184.287 36.1667 183.504 35.875 182.471 35.875C181.454 35.875 180.671 36.1667 180.121 36.75C179.571 37.3333 179.296 38.1667 179.296 39.25V39.975H185.821L185.646 40.175ZM197.561 48.25C196.461 48.25 195.503 48.0417 194.686 47.625C193.886 47.2083 193.261 46.6083 192.811 45.825C192.378 45.025 192.161 44.0833 192.161 43V34.75C192.161 33.65 192.378 32.7083 192.811 31.925C193.261 31.1417 193.886 30.5417 194.686 30.125C195.503 29.7083 196.461 29.5 197.561 29.5C198.661 29.5 199.611 29.7167 200.411 30.15C201.211 30.5667 201.828 31.1667 202.261 31.95C202.694 32.7333 202.911 33.6667 202.911 34.75H200.661C200.661 33.7167 200.386 32.925 199.836 32.375C199.303 31.8083 198.544 31.525 197.561 31.525C196.578 31.525 195.803 31.8 195.236 32.35C194.686 32.9 194.411 33.6917 194.411 34.725V43C194.411 44.0333 194.686 44.8333 195.236 45.4C195.803 45.95 196.578 46.225 197.561 46.225C198.544 46.225 199.303 45.95 199.836 45.4C200.386 44.8333 200.661 44.0333 200.661 43H202.911C202.911 44.0667 202.694 45 202.261 45.8C201.828 46.5833 201.211 47.1917 200.411 47.625C199.611 48.0417 198.661 48.25 197.561 48.25ZM212.451 48.2C211.351 48.2 210.401 47.9917 209.601 47.575C208.801 47.1583 208.176 46.5583 207.726 45.775C207.293 44.975 207.076 44.0333 207.076 42.95V39.3C207.076 38.2 207.293 37.2583 207.726 36.475C208.176 35.6917 208.801 35.0917 209.601 34.675C210.401 34.2583 211.351 34.05 212.451 34.05C213.551 34.05 214.501 34.2583 215.301 34.675C216.101 35.0917 216.718 35.6917 217.151 36.475C217.601 37.2583 217.826 38.1917 217.826 39.275V42.95C217.826 44.0333 217.601 44.975 217.151 45.775C216.718 46.5583 216.101 47.1583 215.301 47.575C214.501 47.9917 213.551 48.2 212.451 48.2ZM212.451 46.2C213.435 46.2 214.201 45.925 214.751 45.375C215.301 44.825 215.576 44.0167 215.576 42.95V39.3C215.576 38.2333 215.301 37.425 214.751 36.875C214.201 36.325 213.435 36.05 212.451 36.05C211.485 36.05 210.718 36.325 210.151 36.875C209.601 37.425 209.326 38.2333 209.326 39.3V42.95C209.326 44.0167 209.601 44.825 210.151 45.375C210.718 45.925 211.485 46.2 212.451 46.2ZM222.241 48V34.25H224.491V36.875H224.966L224.491 37.4C224.491 36.3167 224.816 35.4833 225.466 34.9C226.116 34.3 227.016 34 228.166 34C229.55 34 230.65 34.425 231.466 35.275C232.283 36.125 232.691 37.2833 232.691 38.75V48H230.441V39C230.441 38.0167 230.175 37.2667 229.641 36.75C229.125 36.2167 228.416 35.95 227.516 35.95C226.583 35.95 225.841 36.2333 225.291 36.8C224.758 37.3667 224.491 38.1833 224.491 39.25V48H222.241ZM237.232 48V34.25H239.482V36.875H239.957L239.482 37.4C239.482 36.3167 239.807 35.4833 240.457 34.9C241.107 34.3 242.007 34 243.157 34C244.54 34 245.64 34.425 246.457 35.275C247.273 36.125 247.682 37.2833 247.682 38.75V48H245.432V39C245.432 38.0167 245.165 37.2667 244.632 36.75C244.115 36.2167 243.407 35.95 242.507 35.95C241.573 35.95 240.832 36.2333 240.282 36.8C239.748 37.3667 239.482 38.1833 239.482 39.25V48H237.232ZM257.422 48.25C256.339 48.25 255.389 48.0333 254.572 47.6C253.772 47.1667 253.147 46.5583 252.697 45.775C252.264 44.975 252.047 44.05 252.047 43V39.25C252.047 38.1833 252.264 37.2583 252.697 36.475C253.147 35.6917 253.772 35.0833 254.572 34.65C255.389 34.2167 256.339 34 257.422 34C258.505 34 259.447 34.2167 260.247 34.65C261.064 35.0833 261.689 35.6917 262.122 36.475C262.572 37.2583 262.797 38.1833 262.797 39.25V41.675H254.247V43C254.247 44.0833 254.522 44.9167 255.072 45.5C255.622 46.0667 256.405 46.35 257.422 46.35C258.289 46.35 258.989 46.2 259.522 45.9C260.055 45.5833 260.38 45.1167 260.497 44.5H262.747C262.597 45.65 262.03 46.5667 261.047 47.25C260.08 47.9167 258.872 48.25 257.422 48.25ZM260.597 40.175V39.25C260.597 38.1667 260.322 37.3333 259.772 36.75C259.239 36.1667 258.455 35.875 257.422 35.875C256.405 35.875 255.622 36.1667 255.072 36.75C254.522 37.3333 254.247 38.1667 254.247 39.25V39.975H260.772L260.597 40.175ZM272.512 48.25C271.412 48.25 270.445 48.0417 269.612 47.625C268.795 47.2083 268.162 46.6083 267.712 45.825C267.262 45.025 267.037 44.0833 267.037 43V39.25C267.037 38.15 267.262 37.2083 267.712 36.425C268.162 35.6417 268.795 35.0417 269.612 34.625C270.445 34.2083 271.412 34 272.512 34C274.095 34 275.37 34.425 276.337 35.275C277.304 36.125 277.812 37.2833 277.862 38.75H275.612C275.562 37.8667 275.262 37.1917 274.712 36.725C274.179 36.2417 273.445 36 272.512 36C271.529 36 270.745 36.2833 270.162 36.85C269.579 37.4 269.287 38.1917 269.287 39.225V43C269.287 44.0333 269.579 44.8333 270.162 45.4C270.745 45.9667 271.529 46.25 272.512 46.25C273.445 46.25 274.179 46.0083 274.712 45.525C275.262 45.0417 275.562 44.3667 275.612 43.5H277.862C277.812 44.9667 277.304 46.125 276.337 46.975C275.37 47.825 274.095 48.25 272.512 48.25ZM288.902 48C287.719 48 286.794 47.6833 286.127 47.05C285.477 46.4167 285.152 45.525 285.152 44.375V36.3H281.277V34.25H285.152V30.375H287.402V34.25H292.902V36.3H287.402V44.375C287.402 45.425 287.902 45.95 288.902 45.95H292.652V48H288.902Z" fill="white"/>
<rect x="1.5" y="22.5" width="62" height="40" rx="1.5" stroke="#FF0066" stroke-width="3"/>
<path d="M33.5 3C33.5 2.17157 34.1716 1.5 35 1.5H94C94.8284 1.5 95.5 2.17157 95.5 3V40C95.5 40.8284 94.8284 41.5 94 41.5H35C34.1716 41.5 33.5 40.8284 33.5 40V3Z" stroke="#4285F4" stroke-width="3"/>
<rect x="1.5" y="22.5" width="62" height="40" rx="1.5" stroke="#FF0066" stroke-width="3"/>
<path d="M33.5 3C33.5 2.17157 34.1716 1.5 35 1.5H94C94.8284 1.5 95.5 2.17157 95.5 3V40C95.5 40.8284 94.8284 41.5 94 41.5H35C34.1716 41.5 33.5 40.8284 33.5 40V3Z" stroke="#FF0066" stroke-width="3"/>
<rect x="1.5" y="22.5" width="62" height="40" rx="1.5" stroke="#FF0066" stroke-width="3"/>
<path d="M33.5 3C33.5 2.17157 34.1716 1.5 35 1.5H94C94.8284 1.5 95.5 2.17157 95.5 3V40C95.5 40.8284 94.8284 41.5 94 41.5H35C34.1716 41.5 33.5 40.8284 33.5 40V3Z" stroke="#4285F4" stroke-width="3"/>
<path d="M16.2557 32.5455L8.47159 37.6023V37.0625L15.8295 32.2898L15.7443 32.4318V32.2045L15.8295 32.3466L8.47159 27.5739V27.0341L16.2557 32.0909V32.5455Z" fill="white"/>
<path d="M16.2557 32.5455L8.47159 37.6023V37.0625L15.8295 32.2898L15.7443 32.4318V32.2045L15.8295 32.3466L8.47159 27.5739V27.0341L16.2557 32.0909V32.5455Z" fill="white"/>
<path d="M50.1648 13.8864L41.017 18.5455V16.7273L48.0341 13.3466L47.9773 13.4602V13.1761L48.0341 13.2898L41.017 9.90909V8.09091L50.1648 12.75V13.8864Z" fill="white"/>
<path d="M17.1648 32.8864L8.01705 37.5455V35.7273L15.0341 32.3466L14.9773 32.4602V32.1761L15.0341 32.2898L8.01705 28.9091V27.0909L17.1648 31.75V32.8864Z" fill="white"/>
</svg>
