<svg width="754" height="593" viewBox="0 0 754 593" fill="none" xmlns="http://www.w3.org/2000/svg">
<path d="M292.69 104.601H22.5554C12.2536 104.601 3.8689 96.62 3.8689 86.814C3.8689 77.008 12.2536 69.0269 22.5554 69.0269H292.69C302.992 69.0269 311.377 77.008 311.377 86.814C311.377 96.62 302.992 104.601 292.69 104.601ZM22.5554 71.2255C13.524 71.2255 6.17873 78.2172 6.17873 86.814C6.17873 95.4107 13.524 102.402 22.5554 102.402H292.69C301.722 102.402 309.067 95.4107 309.067 86.814C309.067 78.2172 301.722 71.2255 292.69 71.2255H22.5554Z" fill="#E2E3E4"/>
<path d="M292.69 312.759H22.5556C12.5656 312.759 4.44653 305.031 4.44653 295.522C4.44653 286.012 12.5656 278.284 22.5556 278.284H292.69C302.68 278.284 310.799 286.012 310.799 295.522C310.799 305.031 302.68 312.759 292.69 312.759Z" fill="#FF0066"/>
<path d="M204.166 34.475H18.1091C8.11906 34.475 0 26.7467 0 17.2375C0 7.72828 8.11906 0 18.1091 0H204.166C214.156 0 222.275 7.72828 222.275 17.2375C222.275 26.7467 214.156 34.475 204.166 34.475Z" fill="#E2E3E4"/>
<path d="M292.69 174.167H22.5554C12.2536 174.167 3.8689 166.186 3.8689 156.38C3.8689 146.574 12.2536 138.592 22.5554 138.592H292.69C302.992 138.592 311.377 146.574 311.377 156.38C311.377 166.186 302.992 174.167 292.69 174.167ZM22.5554 140.791C13.524 140.791 6.17873 147.783 6.17873 156.38C6.17873 164.976 13.524 171.968 22.5554 171.968H292.69C301.722 171.968 309.067 164.976 309.067 156.38C309.067 147.783 301.722 140.791 292.69 140.791H22.5554Z" fill="#E2E3E4"/>
<path d="M292.69 243.743H22.5554C12.2536 243.743 3.8689 235.762 3.8689 225.956C3.8689 216.15 12.2536 208.169 22.5554 208.169H292.69C302.992 208.169 311.377 216.15 311.377 225.956C311.377 235.762 302.992 243.743 292.69 243.743ZM22.5554 210.368C13.524 210.368 6.17873 217.359 6.17873 225.956C6.17873 234.553 13.524 241.545 22.5554 241.545H292.69C301.722 241.545 309.067 234.553 309.067 225.956C309.067 217.359 301.722 210.368 292.69 210.368H22.5554Z" fill="#E2E3E4"/>
<path d="M13.27 56.2527H84.0663C85.7525 56.2527 87.1269 57.5499 87.1269 59.1659C87.1269 60.7709 85.7525 62.0791 84.0663 62.0791H13.27C11.5838 62.0791 10.2095 60.7819 10.2095 59.1659C10.2095 57.5609 11.5838 56.2527 13.27 56.2527Z" fill="#E2E3E4"/>
<path d="M13.27 127.467H84.0663C85.7525 127.467 87.1269 128.764 87.1269 130.369C87.1269 131.974 85.7525 133.283 84.0663 133.283H13.27C11.5838 133.283 10.2095 131.985 10.2095 130.38C10.2095 128.775 11.5838 127.467 13.27 127.467Z" fill="#E2E3E4"/>
<path d="M13.27 198.693H84.0663C85.7525 198.693 87.1269 199.99 87.1269 201.606C87.1269 203.211 85.7525 204.508 84.0663 204.508H13.27C11.5838 204.508 10.2095 203.211 10.2095 201.595C10.2095 199.99 11.5838 198.693 13.27 198.693Z" fill="#E2E3E4"/>
<path d="M516.34 145.397L490.516 153.488V118.101H513.949L516.34 145.397Z" fill="#9F616A"/>
<path d="M493.715 127.896C507.926 127.896 519.446 116.93 519.446 103.403C519.446 89.8757 507.926 78.9098 493.715 78.9098C479.504 78.9098 467.983 89.8757 467.983 103.403C467.983 116.93 479.504 127.896 493.715 127.896Z" fill="#9F616A"/>
<path d="M500.783 100.973C496.475 100.852 493.646 96.708 491.971 92.9263C490.296 89.1446 488.576 84.8022 484.58 83.2412C481.311 81.966 475.548 90.5957 472.973 88.2981C470.282 85.9016 472.903 73.6001 475.756 71.3904C478.609 69.1808 482.512 68.752 486.185 68.5871C495.147 68.1914 504.167 68.884 512.956 70.6319C518.395 71.7092 523.985 73.3362 527.912 77.074C532.878 81.8231 534.149 88.9797 534.507 95.6746C534.876 102.523 534.46 109.691 530.961 115.682C527.462 121.674 520.139 126.093 513.118 124.565C512.413 120.937 513.129 117.21 513.406 113.517C513.672 109.834 513.395 105.854 511.027 102.919C508.671 99.984 503.613 98.8187 500.864 101.424" fill="#2F2E43"/>
<path d="M532.439 109.46C535.015 107.668 538.098 106.162 541.263 106.536C544.681 106.932 547.58 109.614 548.458 112.791C549.336 115.968 548.354 119.464 546.229 122.058C544.115 124.653 540.962 126.368 537.636 127.225C535.708 127.72 533.594 127.929 531.758 127.181C529.055 126.071 527.589 122.784 528.651 120.168" fill="#2F2E43"/>
<path d="M433.971 339.913C432.25 347.96 435.403 355.314 440.993 356.337C446.583 357.359 452.507 351.653 454.217 343.606C454.944 340.396 454.829 337.076 453.882 333.91L475.167 207.762L448.546 202.991L438.267 331.063C436.085 333.657 434.618 336.691 433.971 339.924V339.913Z" fill="#9F616A"/>
<path d="M490.238 137.251H472.072C459.229 139.109 455.741 145.628 452.819 157.677C448.361 176.058 442.667 200.529 443.799 200.891C445.613 201.463 476.541 215.315 492.306 212.148L490.238 137.251Z" fill="#E2E3E4"/>
<path d="M507.805 539.067H483.621V571.728H507.805V539.067Z" fill="#9F616A"/>
<path d="M460.072 591.494C457.531 591.494 455.268 591.439 453.558 591.285C447.137 590.724 441.004 586.206 437.921 583.568C436.535 582.381 436.096 580.49 436.812 578.863C437.332 577.697 438.36 576.818 439.642 576.477L456.619 571.86L484.106 554.205L484.418 554.732C484.533 554.93 487.236 559.558 488.137 562.681C488.483 563.868 488.391 564.857 487.871 565.627C487.513 566.154 487.005 566.462 486.6 566.638C487.097 567.133 488.656 568.144 493.461 568.87C500.471 569.925 501.949 563.01 502.007 562.725L502.053 562.494L502.261 562.362C505.599 560.317 507.655 559.383 508.359 559.58C508.798 559.701 509.537 559.921 511.535 578.753C511.731 579.346 513.129 583.678 512.182 587.822C511.154 592.329 490.458 590.779 486.312 590.428C486.196 590.439 470.697 591.494 460.084 591.494H460.072Z" fill="#2F2E43"/>
<path d="M576.668 513.406L556.148 525.588L574.305 553.301L594.825 541.119L576.668 513.406Z" fill="#9F616A"/>
<path d="M549.416 587.02C546.575 587.02 543.965 586.69 542.106 586.382C540.281 586.074 538.849 584.689 538.549 582.952C538.341 581.699 538.722 580.435 539.623 579.5L551.461 567.034L564.973 538.209L565.527 538.495C565.735 538.605 570.598 541.167 573.104 543.365C574.062 544.201 574.536 545.091 574.513 546.004C574.501 546.641 574.247 547.147 573.993 547.51C574.686 547.686 576.568 547.752 581.049 545.949C587.586 543.321 584.999 536.703 584.884 536.429L584.791 536.209L584.895 536C586.593 532.581 587.806 530.756 588.522 530.569C588.972 530.448 589.711 530.261 601.873 545.245C602.369 545.641 605.961 548.62 607.462 552.611C609.091 556.953 590.67 566.066 586.963 567.847C586.847 567.935 567.572 581.27 559.649 585.063C556.508 586.569 552.789 587.031 549.405 587.031L549.416 587.02Z" fill="#2F2E43"/>
<path d="M525.614 265.939H457.901L451.757 325.896L478.643 547.433H513.21L499.386 419.482L555.457 534.999L586.177 514.53L542.395 406.686C542.395 406.686 558.032 312.737 545.744 289.332C533.456 265.939 525.614 265.939 525.614 265.939Z" fill="#2F2E43"/>
<path d="M559.303 269.588H451.757L484.025 137.251H530.88L559.303 269.588Z" fill="#E2E3E4"/>
<path d="M568.981 339.913C570.702 347.96 567.549 355.314 561.959 356.337C556.369 357.359 550.444 351.653 548.735 343.606C548.008 340.396 548.123 337.076 549.07 333.91L527.785 207.762L554.406 202.991L564.684 331.063C566.867 333.657 568.334 336.691 568.981 339.924V339.913Z" fill="#9F616A"/>
<path d="M512.713 137.251H530.88C543.723 139.109 547.211 145.628 550.133 157.677C554.591 176.058 560.284 200.529 559.152 200.891C557.339 201.463 526.411 215.315 510.646 212.148L512.713 137.251Z" fill="#E2E3E4"/>
</svg>
