<svg width="609" height="576" viewBox="0 0 609 576" fill="none" xmlns="http://www.w3.org/2000/svg">
<path d="M304.5 492.549C434.927 492.549 540.658 486.711 540.658 479.508C540.658 472.306 434.927 466.468 304.5 466.468C174.074 466.468 68.342 472.306 68.342 479.508C68.342 486.711 174.074 492.549 304.5 492.549Z" fill="#F5F5F5"/>
<path d="M416.556 194.999L201.506 209.664C197.03 209.994 192.873 211.981 189.936 215.192C186.999 218.403 185.519 222.581 185.818 226.817L193.126 322.687C193.472 326.926 195.574 330.865 198.976 333.646C202.377 336.427 206.801 337.825 211.287 337.536L223.467 336.707C224.351 336.646 225.225 336.921 225.897 337.469C226.568 338.018 226.982 338.796 227.047 339.633L228.412 357.396C228.434 357.74 228.564 358.07 228.786 358.344C229.008 358.617 229.312 358.821 229.657 358.93C230.003 359.039 230.375 359.048 230.726 358.955C231.077 358.863 231.391 358.673 231.627 358.41L252.016 336.119C252.874 335.185 254.086 334.61 255.39 334.518L426.3 322.871C430.778 322.544 434.939 320.559 437.878 317.347C440.818 314.135 442.299 309.956 442 305.718L434.692 209.848C434.346 205.613 432.247 201.678 428.851 198.898C425.456 196.117 421.037 194.716 416.556 194.999Z" fill="#FF0066"/>
<path d="M232.918 253.67L244.538 252.876L245.488 265.317L258.18 264.453L257.23 252.012L268.898 251.205L271.614 286.756L259.946 287.551L258.849 273.174L246.158 274.049L247.254 288.426L235.647 289.221L232.918 253.67Z" fill="white"/>
<path opacity="0.2" d="M201.506 209.664C197.03 209.994 192.873 211.981 189.936 215.192C186.999 218.403 185.519 222.581 185.818 226.817L193.126 322.687C193.472 326.926 195.574 330.865 198.976 333.646C202.377 336.427 206.801 337.825 211.287 337.536L213.077 337.409C216.052 337.206 218.873 336.079 221.101 334.205C223.33 332.33 224.842 329.812 225.403 327.041L249.897 206.358L201.506 209.664Z" fill="black"/>
<path d="M308.069 273.784L287.144 275.213C287.304 276.495 287.873 277.7 288.776 278.669C289.293 279.184 289.93 279.579 290.636 279.823C291.341 280.066 292.097 280.153 292.844 280.074C293.87 280.005 294.859 279.688 295.718 279.153C296.391 278.671 296.964 278.078 297.411 277.402L307.764 277.597C306.638 280.012 304.809 282.073 302.49 283.542C300.363 284.817 297.22 285.585 293.063 285.846C290.156 286.166 287.211 285.871 284.44 284.982C282.218 284.1 280.311 282.632 278.946 280.754C277.382 278.616 276.483 276.105 276.352 273.508C276.135 271.704 276.319 269.877 276.894 268.145C277.469 266.413 278.421 264.814 279.689 263.451C282.223 260.778 285.877 259.277 290.651 258.947C293.812 258.591 297.017 258.947 300.006 259.983C302.294 260.908 304.222 262.482 305.523 264.488C307.013 266.979 307.849 269.772 307.959 272.632L308.069 273.784ZM297.107 269.775C296.959 268.277 296.276 266.871 295.17 265.789C294.613 265.384 293.974 265.091 293.293 264.929C292.612 264.767 291.902 264.739 291.209 264.847C290.516 264.955 289.853 265.197 289.263 265.557C288.673 265.918 288.167 266.389 287.777 266.941C287.127 268.025 286.798 269.255 286.827 270.501L297.107 269.775Z" fill="white"/>
<path d="M311.297 248.314L321.759 247.599L324.475 283.139L314.013 283.853L311.297 248.314Z" fill="white"/>
<path d="M328.775 247.116L339.238 246.401L341.954 281.94L331.503 282.655L328.775 247.116Z" fill="white"/>
<path d="M346.363 268.773C346.165 266.97 346.371 265.148 346.967 263.425C347.563 261.702 348.535 260.118 349.822 258.774C352.428 256.032 356.119 254.496 360.893 254.166C366.334 253.797 370.564 255.011 373.585 257.806C376.094 260.309 377.543 263.596 377.658 267.043C377.772 270.49 376.544 273.856 374.206 276.503C371.624 279.222 367.881 280.758 362.976 281.111C359.166 281.543 355.317 280.686 352.112 278.692C350.407 277.573 349 276.094 348.002 274.373C347.004 272.652 346.443 270.735 346.363 268.773ZM356.825 268.036C356.806 269.854 357.466 271.621 358.689 273.024C359.182 273.502 359.779 273.872 360.439 274.11C361.099 274.348 361.805 274.447 362.51 274.401C363.214 274.355 363.899 274.165 364.518 273.844C365.137 273.522 365.675 273.077 366.094 272.54C367.079 270.936 367.449 269.061 367.142 267.229C367.154 265.448 366.503 263.719 365.303 262.345C364.833 261.858 364.252 261.48 363.604 261.241C362.955 261.001 362.257 260.906 361.563 260.963C360.84 260.994 360.134 261.183 359.5 261.515C358.866 261.847 358.322 262.312 357.909 262.875C356.928 264.425 356.561 266.254 356.874 268.036H356.825Z" fill="white"/>
<path d="M380.954 243.544L392.099 242.784L392.72 250.848L391.806 267.264L384.912 267.736L381.563 251.608L380.954 243.544ZM383.39 270.363L393.792 269.649L394.461 278.358L384.048 279.06L383.39 270.363Z" fill="white"/>
<path d="M198.534 178.099C198.48 179.786 198.573 181.473 198.814 183.145C187.777 186.631 176.007 187.513 164.528 185.714C165.079 183.743 165.413 181.724 165.526 179.689C165.142 181.739 164.388 183.71 163.297 185.518C161.129 185.126 159.911 184.792 159.911 184.792C159.911 184.792 162.128 173.457 158.133 165.208C154.138 156.96 156.136 152.352 159.156 151.05C164.759 134.761 185.818 137.33 192.944 143.942C201.981 152.329 202.03 175.956 203.638 181.359C202.31 181.901 201.007 182.396 199.703 182.834C199.051 181.324 198.656 179.726 198.534 178.099Z" fill="#263238"/>
<path d="M207.243 203.455L208.339 206.738C208.741 207.89 209.143 209.042 209.557 210.136C210.373 212.44 211.226 214.744 212.139 216.956C213.053 219.168 213.93 221.495 214.88 223.753L216.292 227.209L216.646 228.061L216.731 228.257C216.58 228.133 216.407 228.035 216.219 227.969C215.951 227.877 215.842 227.969 216.012 227.969C216.306 227.968 216.597 227.925 216.877 227.843C217.83 227.557 218.745 227.171 219.605 226.691C221.683 225.546 223.669 224.26 225.549 222.843C227.522 221.391 229.459 219.836 231.359 218.235C233.259 216.634 235.171 214.963 237.011 213.327L240.75 216.323C239.191 218.442 237.547 220.378 235.878 222.348C234.209 224.317 232.334 226.161 230.409 227.992C228.428 229.905 226.272 231.647 223.966 233.199C222.646 234.074 221.229 234.808 219.739 235.388C218.794 235.747 217.803 235.987 216.792 236.102C215.419 236.264 214.026 236.085 212.748 235.584C211.355 235.023 210.169 234.085 209.338 232.888C209.155 232.623 208.984 232.358 208.85 232.116L208.522 231.494L208.083 230.653C207.511 229.501 206.865 228.349 206.366 227.267C205.257 224.963 204.149 222.659 203.138 220.355C202.127 218.051 201.141 215.677 200.203 213.304C199.764 212.152 199.326 210.897 198.912 209.687C198.497 208.477 198.096 207.291 197.694 205.874L207.243 203.455Z" fill="#FFC3BD"/>
<path d="M204.356 193.225C208.558 194.239 211.494 210.574 211.494 210.574L199.923 218.016C199.923 218.016 188.839 201.531 192.067 197.165C195.428 192.626 198.23 191.75 204.356 193.225Z" fill="#FF0066"/>
<path d="M204.356 193.225C208.558 194.239 211.494 210.574 211.494 210.574L199.923 218.016C199.923 218.016 188.839 201.531 192.067 197.165C195.428 192.626 198.23 191.75 204.356 193.225Z" fill="#FF0066"/>
<path opacity="0.4" d="M204.356 193.225C208.558 194.239 211.494 210.574 211.494 210.574L199.923 218.016C199.923 218.016 188.839 201.531 192.067 197.165C195.428 192.626 198.23 191.75 204.356 193.225Z" fill="white"/>
<path opacity="0.3" d="M203.979 196.877L207.206 213.339L200.702 217.509L203.979 196.877Z" fill="black"/>
<path d="M236.816 213.719L240.677 204.918L245.439 213.719C245.439 213.719 242.346 218.097 238.265 217.025L236.816 213.719Z" fill="#FFC3BD"/>
<path d="M244.928 204.008L251.042 206.335L245.439 213.719L240.665 204.918L244.928 204.008Z" fill="#FFC3BD"/>
<path d="M181.64 468.23H191.835L192.517 445.916H182.322L181.64 468.23Z" fill="#FFC3BD"/>
<path d="M113.286 439.488L122.653 443.267L134.918 423.959L125.539 420.18L113.286 439.488Z" fill="#FFC3BD"/>
<path d="M124.455 441.953L114.711 436.285C114.545 436.184 114.344 436.145 114.149 436.174C113.953 436.204 113.776 436.301 113.652 436.447L107.793 443.094C107.647 443.268 107.543 443.469 107.486 443.685C107.429 443.9 107.422 444.124 107.465 444.343C107.508 444.561 107.599 444.768 107.734 444.95C107.868 445.132 108.042 445.285 108.244 445.398C111.679 447.322 113.432 448.082 117.72 450.57C120.363 452.114 124.041 454.602 127.683 456.722C131.325 458.842 133.773 455.57 132.421 454.36C126.514 449.027 126.684 446.492 125.576 443.336C125.392 442.762 124.994 442.271 124.455 441.953Z" fill="#263238"/>
<path d="M192.176 467.113H180.739C180.542 467.111 180.351 467.176 180.201 467.297C180.051 467.418 179.952 467.585 179.923 467.77L178.62 476.34C178.588 476.56 178.607 476.784 178.676 476.996C178.744 477.208 178.861 477.404 179.017 477.57C179.173 477.735 179.366 477.866 179.581 477.954C179.796 478.043 180.029 478.085 180.264 478.08C184.259 478.022 186.183 477.792 191.226 477.792C194.32 477.792 200.726 478.103 205.002 478.103C209.277 478.103 209.496 474.106 207.718 473.737C199.74 472.113 196.597 469.878 193.906 467.747C193.429 467.345 192.815 467.12 192.176 467.113Z" fill="#263238"/>
<path opacity="0.2" d="M192.505 445.928L192.164 457.425H181.969L182.322 445.928H192.505Z" fill="black"/>
<path opacity="0.2" d="M125.539 420.192L134.906 423.959L128.584 433.912L119.218 430.134L125.539 420.192Z" fill="black"/>
<path d="M204.356 193.225C204.356 193.225 209.228 194.838 199.484 251.366H158.072C158.766 235.446 158.791 225.631 150.764 192.948C156.555 191.817 162.425 191.085 168.328 190.76C174.584 190.333 180.865 190.333 187.121 190.76C195.209 191.451 204.356 193.225 204.356 193.225Z" fill="#FF0066"/>
<path opacity="0.4" d="M204.356 193.225C204.356 193.225 209.228 194.838 199.484 251.366H158.072C158.766 235.446 158.791 225.631 150.764 192.948C156.555 191.817 162.425 191.085 168.328 190.76C174.584 190.333 180.865 190.333 187.121 190.76C195.209 191.451 204.356 193.225 204.356 193.225Z" fill="white"/>
<path d="M168.352 190.748C174.609 190.333 180.889 190.333 187.146 190.748C188.157 190.84 189.192 190.944 190.215 191.059C190.641 191.665 190.914 192.354 191.013 193.076C191.113 193.797 191.035 194.53 190.788 195.218C189.46 198.317 184.698 198.674 181.239 198.674C168.437 198.674 166.269 191.601 166.184 191.301L166.062 190.875L168.352 190.748Z" fill="white"/>
<path d="M170.216 170.749C171.434 176.509 172.591 186.947 168.352 190.76C168.352 190.76 170.009 196.52 181.238 196.52C193.589 196.52 187.146 190.76 187.146 190.76C180.398 189.239 180.581 184.504 181.75 180.069L170.216 170.749Z" fill="#FFC3BD"/>
<path d="M171.446 166.683C169.996 171.21 172.006 181.924 174.99 186.071C169.107 182.88 167.122 173.157 167.122 173.157L171.446 166.683Z" fill="#263238"/>
<path opacity="0.2" d="M174.917 174.551L181.75 180.058C181.45 181.09 181.255 182.147 181.166 183.214C178.596 182.857 175.076 180.184 174.783 177.638C174.632 176.61 174.677 175.564 174.917 174.551Z" fill="black"/>
<path d="M164.637 160.543C167 169.839 167.78 173.825 173.699 177.823C182.603 183.825 194.161 179.055 194.783 169.275C195.343 160.474 191.397 146.753 180.983 144.634C178.688 144.154 176.302 144.238 174.051 144.876C171.801 145.514 169.759 146.686 168.122 148.279C166.484 149.873 165.305 151.836 164.695 153.983C164.085 156.129 164.065 158.387 164.637 160.543Z" fill="#FFC3BD"/>
<path d="M199.496 251.366C199.496 251.366 207.523 325.578 206.804 354.954C206.11 385.505 194.271 455.178 194.271 455.178H180.508C180.508 455.178 182.688 387.268 181.47 357.258C180.142 324.541 169.156 251.343 169.156 251.343L199.496 251.366Z" fill="#FF0066"/>
<path opacity="0.4" d="M199.496 251.366C199.496 251.366 207.523 325.578 206.804 354.954C206.11 385.505 194.271 455.178 194.271 455.178H180.508C180.508 455.178 182.688 387.268 181.47 357.258C180.142 324.541 169.156 251.343 169.156 251.343L199.496 251.366Z" fill="#6899CA"/>
<path d="M179.363 455.662H195.514L196.707 450.789L178.608 450.19L179.363 455.662Z" fill="#FF0066"/>
<path opacity="0.2" d="M181.653 269.833C191.811 289.164 183.687 324.426 180.094 337.548C178.254 317.848 175.148 293.772 172.725 276.065C174.259 266.112 176.963 260.916 181.653 269.833Z" fill="black"/>
<path d="M188.571 251.366C188.571 251.366 179.192 328.55 172.116 353.284C163.724 382.694 131.776 432.772 131.776 432.772L118.999 427.634C118.999 427.634 138.767 370.771 145.198 355.277C158.9 322.214 147.171 272.943 158.121 251.366H188.571Z" fill="#FF0066"/>
<path opacity="0.4" d="M188.571 251.366C188.571 251.366 179.192 328.55 172.116 353.284C163.724 382.694 131.776 432.772 131.776 432.772L118.999 427.634C118.999 427.634 138.767 370.771 145.198 355.277C158.9 322.214 147.171 272.943 158.121 251.366H188.571Z" fill="#6899CA"/>
<path d="M117.233 427.668L133.091 434.051L136.903 430.019L118.609 421.713L117.233 427.668Z" fill="#FF0066"/>
<path d="M180.264 160.669C180.41 161.43 180.946 161.983 181.482 161.891C182.018 161.798 182.323 161.107 182.176 160.347C182.03 159.587 181.494 159.034 180.958 159.114C180.422 159.195 180.057 159.898 180.264 160.669Z" fill="#263238"/>
<path d="M189.35 159.149C189.484 159.909 190.032 160.462 190.568 160.37C191.104 160.278 191.421 159.587 191.275 158.826C191.129 158.066 190.593 157.513 190.057 157.594C189.521 157.674 189.204 158.377 189.35 159.149Z" fill="#263238"/>
<path d="M189.825 157.686L191.665 156.822C191.665 156.822 190.934 158.423 189.825 157.686Z" fill="#263238"/>
<path d="M187.17 160.865C188.216 162.491 189.495 163.972 190.97 165.266C190.609 165.612 190.172 165.88 189.691 166.051C189.209 166.222 188.694 166.292 188.181 166.257L187.17 160.865Z" fill="#ED847E"/>
<path d="M184.515 169.862C184.976 169.862 185.437 169.823 185.891 169.747C185.926 169.746 185.96 169.738 185.991 169.723C186.022 169.708 186.05 169.687 186.071 169.661C186.093 169.636 186.109 169.606 186.118 169.574C186.126 169.542 186.127 169.509 186.121 169.476C186.115 169.444 186.102 169.413 186.082 169.386C186.062 169.359 186.036 169.336 186.007 169.319C185.977 169.302 185.943 169.292 185.909 169.288C185.874 169.284 185.839 169.288 185.806 169.298C184.803 169.487 183.767 169.449 182.783 169.186C181.798 168.924 180.893 168.445 180.142 167.789C180.097 167.747 180.036 167.723 179.972 167.723C179.908 167.723 179.847 167.747 179.801 167.789C179.778 167.809 179.759 167.834 179.746 167.862C179.733 167.89 179.726 167.92 179.726 167.95C179.726 167.98 179.733 168.01 179.746 168.038C179.759 168.066 179.778 168.091 179.801 168.111C181.073 169.252 182.763 169.88 184.515 169.862Z" fill="#263238"/>
<path d="M168.084 155.094C168.351 157.544 168.757 159.978 169.302 162.386C169.302 162.386 175.392 155.094 176.403 151.188C176.161 152.726 175.69 154.223 175.002 155.635C175.002 155.635 183.2 153.942 184.003 148.827C183.99 151.117 183.72 153.399 183.2 155.635C183.2 155.635 191.019 152.732 190.3 147.825C189.582 142.917 177.572 141.016 172.03 142.675C166.489 144.334 161.068 149.714 162.701 157.11C164.333 164.506 167.463 167.282 167.463 167.282C167.463 167.282 165.21 159.828 168.084 155.094Z" fill="#263238"/>
<path d="M164.211 167.547C164.963 169.253 166.399 170.608 168.206 171.314C170.642 172.236 172.091 170.266 171.665 167.985C171.287 165.923 169.57 162.973 167.049 163.02C166.497 163.043 165.96 163.195 165.487 163.464C165.013 163.732 164.617 164.108 164.336 164.558C164.054 165.007 163.895 165.515 163.873 166.037C163.852 166.559 163.968 167.078 164.211 167.547Z" fill="#FFC3BD"/>
<path d="M169.558 151.546C168.34 156.154 170.873 166.752 174.065 170.749C167.975 167.835 165.539 158.204 165.539 158.204L169.558 151.546Z" fill="#263238"/>
<path d="M176.927 158.043C176.989 158.025 177.048 157.995 177.098 157.956C177.148 157.916 177.189 157.867 177.219 157.812C177.476 157.293 177.859 156.838 178.338 156.486C178.816 156.133 179.376 155.893 179.972 155.785C180.098 155.768 180.212 155.706 180.291 155.612C180.371 155.517 180.409 155.398 180.398 155.278C180.392 155.218 180.373 155.159 180.343 155.106C180.312 155.053 180.271 155.006 180.221 154.969C180.171 154.931 180.113 154.903 180.052 154.887C179.99 154.871 179.926 154.867 179.862 154.875C179.107 154.999 178.394 155.293 177.783 155.732C177.173 156.171 176.683 156.742 176.354 157.398C176.313 157.478 176.297 157.568 176.309 157.656C176.32 157.745 176.358 157.828 176.419 157.896C176.48 157.965 176.56 158.015 176.65 158.041C176.74 158.067 176.836 158.068 176.927 158.043Z" fill="#263238"/>
<path d="M192.676 154.472C192.737 154.474 192.798 154.464 192.855 154.442C192.911 154.42 192.962 154.387 193.004 154.345C193.094 154.259 193.144 154.143 193.144 154.022C193.144 153.902 193.094 153.786 193.004 153.7C192.485 153.168 191.841 152.76 191.123 152.508C190.406 152.255 189.636 152.167 188.875 152.248C188.812 152.259 188.752 152.282 188.698 152.315C188.644 152.349 188.597 152.392 188.561 152.442C188.525 152.492 188.499 152.549 188.487 152.609C188.474 152.668 188.473 152.73 188.486 152.79C188.512 152.906 188.585 153.009 188.69 153.075C188.794 153.142 188.922 153.167 189.046 153.147C189.646 153.084 190.253 153.155 190.818 153.355C191.383 153.555 191.89 153.879 192.298 154.299C192.343 154.352 192.401 154.396 192.466 154.426C192.531 154.456 192.603 154.471 192.676 154.472Z" fill="#263238"/>
<path d="M155.819 206.623C154.126 211.68 152.506 216.991 151.13 222.221C149.744 227.384 148.731 232.63 148.097 237.923L147.999 238.89C147.999 239.201 147.999 239.27 147.999 239.547C148.013 240.09 148.057 240.632 148.133 241.171C148.288 242.433 148.512 243.687 148.803 244.927C149.376 247.496 150.021 250.145 150.849 252.772C151.678 255.398 152.384 258.071 153.212 260.721L155.648 268.669L151.13 270.432C148.352 265.409 145.941 260.294 143.688 255.018C142.604 252.369 141.544 249.696 140.667 246.874C140.228 245.468 139.814 244.028 139.449 242.461C139.275 241.632 139.153 240.793 139.083 239.95C139.083 239.524 139.083 238.89 139.083 238.51V237.358C139.187 234.423 139.471 231.495 139.936 228.591C140.338 225.711 140.935 222.9 141.58 220.101C142.848 214.495 144.475 208.966 146.452 203.547L155.819 206.623Z" fill="#FFC3BD"/>
<path d="M150.789 192.948C146.647 194.1 141.666 207.636 141.666 207.636L157.743 218.511C157.743 218.511 163.614 207.245 161.872 202.176C160.058 196.9 155.527 191.589 150.789 192.948Z" fill="#FF0066"/>
<path opacity="0.4" d="M150.789 192.948C146.647 194.1 141.666 207.636 141.666 207.636L157.743 218.511C157.743 218.511 163.614 207.245 161.872 202.176C160.058 196.9 155.527 191.589 150.789 192.948Z" fill="white"/>
<path d="M128.572 445.617C128.77 445.551 128.951 445.444 129.1 445.305C129.25 445.166 129.365 444.997 129.437 444.81C129.507 444.69 129.544 444.556 129.544 444.419C129.544 444.281 129.507 444.147 129.437 444.027C128.706 443.013 125.016 443.094 124.565 443.105C124.518 443.106 124.473 443.119 124.434 443.144C124.395 443.168 124.365 443.203 124.346 443.244C124.322 443.28 124.31 443.322 124.31 443.364C124.31 443.407 124.322 443.449 124.346 443.485C125.308 444.396 127.111 445.882 128.377 445.651L128.572 445.617ZM125.15 443.52C126.624 443.52 128.597 443.716 128.986 444.257C129.02 444.309 129.037 444.369 129.037 444.43C129.037 444.491 129.02 444.551 128.986 444.603C128.933 444.742 128.843 444.866 128.726 444.965C128.609 445.063 128.469 445.133 128.317 445.167C127.647 445.329 126.477 444.672 125.15 443.52Z" fill="#FF0066"/>
<path d="M126.234 443.278C127.354 442.944 128.548 442.357 128.804 441.7C128.867 441.529 128.868 441.343 128.806 441.172C128.744 441 128.623 440.854 128.462 440.755C128.321 440.643 128.154 440.563 127.974 440.521C127.795 440.48 127.608 440.477 127.427 440.513C125.978 440.755 124.419 443.105 124.358 443.209C124.336 443.244 124.325 443.284 124.325 443.324C124.325 443.365 124.336 443.404 124.358 443.439C124.38 443.473 124.41 443.501 124.446 443.521C124.482 443.541 124.523 443.553 124.565 443.555C125.132 443.539 125.694 443.446 126.234 443.278ZM127.354 440.974H127.512C127.627 440.952 127.745 440.953 127.859 440.979C127.973 441.005 128.079 441.055 128.17 441.124C128.414 441.308 128.389 441.446 128.353 441.55C128.109 442.184 126.258 442.944 125.028 443.094C125.587 442.208 126.392 441.483 127.354 440.997V440.974Z" fill="#FF0066"/>
<path d="M196.001 468.795C196.859 468.862 197.717 468.655 198.437 468.207C198.604 468.064 198.732 467.884 198.808 467.683C198.884 467.482 198.908 467.267 198.875 467.055C198.866 466.93 198.823 466.81 198.75 466.705C198.678 466.6 198.578 466.515 198.461 466.456C197.243 465.811 193.163 467.77 192.7 467.988C192.655 468.006 192.617 468.035 192.59 468.073C192.563 468.111 192.549 468.156 192.549 468.202C192.549 468.247 192.563 468.292 192.59 468.33C192.617 468.368 192.655 468.397 192.7 468.415C193.784 468.646 194.89 468.774 196.001 468.795ZM197.815 466.802C197.97 466.793 198.125 466.82 198.266 466.883C198.314 466.907 198.354 466.944 198.382 466.989C198.41 467.033 198.425 467.084 198.424 467.136C198.447 467.268 198.435 467.404 198.388 467.531C198.341 467.658 198.262 467.771 198.157 467.862C197.535 468.392 195.854 468.484 193.601 468.127C194.916 467.463 196.342 467.015 197.815 466.802Z" fill="#FF0066"/>
<path d="M192.846 468.461H192.943C194.161 467.942 196.597 465.869 196.378 464.774C196.378 464.509 196.135 464.198 195.465 464.129C195.225 464.104 194.982 464.126 194.752 464.193C194.521 464.26 194.308 464.372 194.125 464.521C192.907 465.535 192.615 468.127 192.602 468.23C192.601 468.271 192.61 468.311 192.629 468.347C192.648 468.384 192.677 468.415 192.712 468.438C192.752 468.461 192.8 468.47 192.846 468.461ZM195.282 464.556H195.428C195.867 464.556 195.903 464.774 195.903 464.82C196.025 465.477 194.393 467.124 193.151 467.827C193.248 466.732 193.703 465.694 194.454 464.855C194.677 464.663 194.968 464.556 195.27 464.556H195.282Z" fill="#FF0066"/>
<path d="M157.5 249.074L156.452 252.53C156.306 252.795 156.647 253.071 157.122 253.071H199.752C200.13 253.071 200.434 252.899 200.458 252.68L200.836 249.224C200.836 248.982 200.532 248.774 200.13 248.774H158.182C158.05 248.765 157.919 248.787 157.799 248.84C157.68 248.892 157.577 248.973 157.5 249.074Z" fill="#263238"/>
<path d="M163.127 253.498H161.994C161.775 253.498 161.604 253.394 161.617 253.256L162.14 248.648C162.14 248.521 162.36 248.406 162.579 248.406H163.699C163.931 248.406 164.089 248.521 164.077 248.648L163.553 253.256C163.553 253.44 163.358 253.498 163.127 253.498Z" fill="#FF0066"/>
<path opacity="0.4" d="M163.127 253.498H161.994C161.775 253.498 161.604 253.394 161.617 253.256L162.14 248.648C162.14 248.521 162.36 248.406 162.579 248.406H163.699C163.931 248.406 164.089 248.521 164.077 248.648L163.553 253.256C163.553 253.44 163.358 253.498 163.127 253.498Z" fill="black"/>
<path d="M196.537 253.498H195.416C195.197 253.498 195.026 253.394 195.038 253.256L195.574 248.648C195.574 248.521 195.781 248.406 196.001 248.406H197.121C197.353 248.406 197.523 248.521 197.499 248.648L196.975 253.256C196.963 253.44 196.768 253.498 196.537 253.498Z" fill="#FF0066"/>
<path opacity="0.4" d="M196.537 253.498H195.416C195.197 253.498 195.026 253.394 195.038 253.256L195.574 248.648C195.574 248.521 195.781 248.406 196.001 248.406H197.121C197.353 248.406 197.523 248.521 197.499 248.648L196.975 253.256C196.963 253.44 196.768 253.498 196.537 253.498Z" fill="black"/>
<path d="M179.838 253.498H178.717C178.486 253.498 178.315 253.394 178.34 253.256L178.863 248.648C178.863 248.521 179.071 248.406 179.302 248.406H180.423C180.642 248.406 180.812 248.521 180.8 248.648L180.276 253.256C180.264 253.44 180.057 253.498 179.838 253.498Z" fill="#FF0066"/>
<path opacity="0.4" d="M179.838 253.498H178.717C178.486 253.498 178.315 253.394 178.34 253.256L178.863 248.648C178.863 248.521 179.071 248.406 179.302 248.406H180.423C180.642 248.406 180.812 248.521 180.8 248.648L180.276 253.256C180.264 253.44 180.057 253.498 179.838 253.498Z" fill="black"/>
<path d="M180.678 159.195L182.517 158.342C182.517 158.342 181.787 159.944 180.678 159.195Z" fill="#263238"/>
<path d="M155.307 267.368L164.04 273.704L153.919 275.812C153.919 275.812 149.619 271.204 151.105 267.402L155.307 267.368Z" fill="#FFC3BD"/>
<path d="M166.184 281.549L157.609 282.874L152.932 274.556L164.04 273.704L166.184 281.549Z" fill="#FFC3BD"/>
</svg>
